<svg width="251" height="54" viewBox="0 0 251 54" fill="none" xmlns="http://www.w3.org/2000/svg">
<path d="M18.9575 0.392166C19.3536 0.0454671 19.899 -0.0833726 20.4119 0.054068L45.5681 6.79534C46.1152 6.94195 46.5427 7.36947 46.6893 7.91655L53.4298 33.0723C53.5762 33.6193 53.4197 34.203 53.0193 34.6034L46.8945 40.7282C46.8918 40.731 46.8891 40.734 46.8863 40.7368L40.737 46.8862C40.7342 46.8889 40.7312 46.8916 40.7284 46.8943L34.6034 53.0193C34.203 53.4197 33.6193 53.5762 33.0723 53.4298L7.91654 46.6893C7.36946 46.5427 6.94194 46.1152 6.79534 45.5681L0.0540624 20.4119C-0.0925322 19.8648 0.0638428 19.2807 0.464345 18.8802L18.8802 0.46435L18.9575 0.392166ZM15.6058 37.6906C15.6429 37.7742 15.7098 37.8411 15.7935 37.8783L34.7579 46.3011C34.8975 46.3631 35.061 46.3328 35.1691 46.2247L35.7807 45.6131C35.9448 45.449 35.9188 45.176 35.7266 45.0459L19.7098 34.1988C19.5429 34.0858 19.399 33.9419 19.286 33.7751L8.43781 17.757C8.30767 17.5649 8.0347 17.5388 7.8706 17.7029L7.25898 18.3146C7.1509 18.4226 7.12052 18.5861 7.18257 18.7258L15.6058 37.6906ZM41.5641 39.3071C41.7084 39.4514 41.9424 39.4514 42.0867 39.3071L42.7981 38.5957C42.9234 38.4704 42.9421 38.2739 42.8428 38.1272L31.7842 21.799C31.7579 21.7601 31.7243 21.7266 31.6855 21.7002L15.3563 10.6411C15.2096 10.5417 15.0131 10.5605 14.8878 10.6857L14.1766 11.397C14.0323 11.5413 14.0323 11.7752 14.1766 11.9195L41.5641 39.3071ZM33.7749 19.2862C33.9417 19.3992 34.0856 19.5431 34.1986 19.71L45.0459 35.7267C45.176 35.9188 45.449 35.9448 45.6131 35.7807L46.2245 35.1693C46.3326 35.0612 46.3629 34.8978 46.3009 34.7581L37.8779 15.7939C37.8407 15.7102 37.7738 15.6433 37.6902 15.6062L18.7256 7.18277C18.5859 7.12073 18.4224 7.1511 18.3144 7.25918L17.7029 7.87061C17.5388 8.03471 17.5649 8.30768 17.757 8.43781L33.7749 19.2862ZM21.7002 31.6855C21.7266 31.7244 21.7601 31.7579 21.799 31.7842L38.1274 42.8426C38.274 42.9419 38.4706 42.9232 38.5958 42.7979L39.3067 42.0871C39.451 41.9428 39.451 41.7088 39.3067 41.5645L11.9191 14.177C11.7748 14.0327 11.5409 14.0327 11.3966 14.177L10.6859 14.8876C10.5607 15.0129 10.5419 15.2094 10.6412 15.3561L21.7002 31.6855ZM10.5727 42.65C10.6069 42.7775 10.7065 42.8771 10.834 42.9113L27.6497 47.4172C28.0898 47.5351 28.3117 46.9075 27.8953 46.7226L13.8191 40.4711C13.4602 40.3117 13.1732 40.0246 13.0138 39.6657L6.76127 25.5887C6.57632 25.1724 5.94875 25.3943 6.06668 25.8344L10.5727 42.65ZM39.6655 13.014C40.0244 13.1734 40.3115 13.4604 40.4709 13.8193L46.7221 27.8953C46.9071 28.3117 47.5346 28.0898 47.4167 27.6497L42.9109 10.8344C42.8768 10.7069 42.7772 10.6073 42.6497 10.5731L25.8343 6.06718C25.3943 5.94925 25.1723 6.57682 25.5887 6.76176L39.6655 13.014Z" fill="white"/>
<path d="M239.608 45.9095C232.426 45.9095 227.243 40.6721 227.243 33.4911V30.2515C227.243 23.0704 232.373 17.8331 239.284 17.8331C246.195 17.8331 251 23.0164 251 30.1975V32.0872C251 32.8431 250.406 33.4911 249.65 33.4911H233.992C233.398 33.4911 232.912 33.977 232.912 34.5709C232.912 38.5664 235.72 41.0501 239.446 41.0501C242.577 41.0501 244.737 39.2683 244.737 37.5405C244.737 36.7846 245.385 36.1907 246.141 36.1907H248.948C249.704 36.1907 250.298 36.7846 250.298 37.5405C250.298 42.2379 245.601 45.9095 239.608 45.9095ZM244.035 29.1716C244.629 29.1716 245.115 28.6857 245.115 28.0918C245.115 24.7442 242.577 22.6925 239.122 22.6925C235.666 22.6925 233.128 24.7442 233.128 28.0918C233.128 28.6857 233.614 29.1716 234.208 29.1716H244.035Z" fill="white"/>
<path d="M212.414 37.0007C212.792 38.1345 214.142 38.1345 214.574 37.0007L220.891 19.237C221.107 18.643 221.539 18.3731 222.133 18.3731H225.426C226.128 18.3731 226.722 19.021 226.398 19.8849L217.327 44.5057C217.112 45.0996 216.68 45.3696 216.086 45.3696H210.902C210.308 45.3696 209.876 45.0996 209.66 44.5057L200.536 19.8309C200.32 19.183 200.752 18.3731 201.562 18.3731H204.855C205.449 18.3731 205.881 18.643 206.097 19.237L212.414 37.0007Z" fill="white"/>
<path d="M193.499 45.3695C192.905 45.3695 192.419 44.8836 192.419 44.2897V19.4529C192.419 18.859 192.905 18.373 193.499 18.373H196.738C197.332 18.373 197.818 18.859 197.818 19.4529V44.2897C197.818 44.8836 197.332 45.3695 196.738 45.3695H193.499ZM192.959 14.5935C192.365 14.5935 191.879 14.1076 191.879 13.5137V9.19422C191.879 8.6003 192.365 8.11436 192.959 8.11436H197.278C197.872 8.11436 198.358 8.6003 198.358 9.19422V13.5137C198.358 14.1076 197.872 14.5935 197.278 14.5935H192.959Z" fill="white"/>
<path d="M163.103 44.2897C163.103 44.8836 162.617 45.3696 162.023 45.3696H158.244C157.65 45.3696 157.164 44.8836 157.164 44.2897V8.65433C157.164 8.0604 157.65 7.57446 158.244 7.57446H162.023C162.617 7.57446 163.103 8.0604 163.103 8.65433V22.1526C163.103 22.7465 163.589 23.2324 164.183 23.2324H179.301C179.895 23.2324 180.381 22.7465 180.381 22.1526V8.65433C180.381 8.0604 180.867 7.57446 181.461 7.57446H185.24C185.834 7.57446 186.32 8.0604 186.32 8.65433V44.2897C186.32 44.8836 185.834 45.3696 185.24 45.3696H181.461C180.867 45.3696 180.381 44.8836 180.381 44.2897V29.7116C180.381 29.1177 179.895 28.6317 179.301 28.6317H164.183C163.589 28.6317 163.103 29.1177 163.103 29.7116V44.2897Z" fill="white"/>
<path d="M151.045 44.2897C151.045 44.8836 150.559 45.3696 149.965 45.3696H146.725C146.131 45.3696 145.645 44.8836 145.645 44.2897V8.65433C145.645 8.0604 146.131 7.57446 146.725 7.57446H149.965C150.559 7.57446 151.045 8.0604 151.045 8.65433V44.2897Z" fill="white"/>
<path d="M129.45 45.9095C122.269 45.9095 117.032 40.6721 117.032 33.4911V30.2515C117.032 23.0704 122.269 17.8331 129.45 17.8331C136.632 17.8331 141.869 23.0704 141.869 30.2515V33.4911C141.869 40.6721 136.632 45.9095 129.45 45.9095ZM129.45 41.0501C133.5 41.0501 136.47 38.0805 136.47 34.031V29.7115C136.47 25.6621 133.5 22.6925 129.45 22.6925C125.401 22.6925 122.431 25.6621 122.431 29.7115V34.031C122.431 38.0805 125.401 41.0501 129.45 41.0501Z" fill="white"/>
<path d="M102.241 45.9095C95.0598 45.9095 89.8225 40.6721 89.8225 33.4911V30.2515C89.8225 23.0704 95.0598 17.8331 102.241 17.8331C109.422 17.8331 114.659 23.0704 114.659 30.2515V33.4911C114.659 40.6721 109.422 45.9095 102.241 45.9095ZM102.241 41.0501C106.29 41.0501 109.26 38.0805 109.26 34.031V29.7115C109.26 25.6621 106.29 22.6925 102.241 22.6925C98.1914 22.6925 95.2218 25.6621 95.2218 29.7115V34.031C95.2218 38.0805 98.1914 41.0501 102.241 41.0501Z" fill="white"/>
<path d="M68.7703 12.9738C68.1764 12.9738 67.6904 12.4878 67.6904 11.8939V8.65433C67.6904 8.0604 68.1764 7.57446 68.7703 7.57446H95.2269C95.8208 7.57446 96.3067 8.0604 96.3067 8.65433V11.8939C96.3067 12.4878 95.8208 12.9738 95.2269 12.9738H86.0481C85.4541 12.9738 84.9682 13.4597 84.9682 14.0536V44.2897C84.9682 44.8836 84.4823 45.3696 83.8883 45.3696H80.1088C79.5149 45.3696 79.029 44.8836 79.029 44.2897V14.0536C79.029 13.4597 78.543 12.9738 77.9491 12.9738H68.7703Z" fill="white"/>
</svg>
