<svg width="1024" height="1024" viewBox="0 0 1024 1024" fill="none" xmlns="http://www.w3.org/2000/svg">
<rect width="1024" height="1024" fill="#F18D8D"/>
<rect width="1024" height="1024" fill="url(#paint0_linear_5070_3169)"/>
<g filter="url(#filter0_d_5070_3169)">
<path d="M796.75 144.941C820.862 144.941 840.409 164.488 840.409 188.6V325.45C840.409 349.562 820.862 369.109 796.75 369.109H644.089C634.804 369.109 627.909 376.274 627.909 384.363V834.6C627.909 858.712 608.362 878.259 584.25 878.259H439.75C415.638 878.259 396.091 858.712 396.091 834.6V384.403C396.091 376.294 389.175 369.149 379.911 369.149H227.25C203.138 369.149 183.591 349.602 183.591 325.49V188.6C183.591 164.488 203.138 144.941 227.25 144.941H796.75Z" fill="white" stroke="black" stroke-width="19.3182"/>
<mask id="mask0_5070_3169" style="mask-type:alpha" maskUnits="userSpaceOnUse" x="193" y="154" width="638" height="715">
<path d="M193.595 325.691C193.595 344.448 208.801 359.654 227.558 359.654H380.055C394.292 359.654 405.865 370.773 405.865 384.54V834.25C405.865 853.008 421.071 868.214 439.828 868.214H584.172C602.929 868.214 618.135 853.008 618.135 834.25V384.5C618.135 370.773 629.667 359.614 643.946 359.614H796.442C815.199 359.614 830.405 344.408 830.405 325.651V188.95C830.405 170.192 815.199 154.986 796.442 154.986H227.558C208.801 154.986 193.595 170.192 193.595 188.95V325.691Z" fill="#FCB732"/>
</mask>
<g mask="url(#mask0_5070_3169)">
<path d="M127.861 -410.381L92.0305 -389.391L91.7473 -348.696L91.3224 -308.144L57.3327 -288.44L23.3429 -268.735L22.6348 -227.898L21.9267 -187.06L-12.3463 -167.07L-46.7609 -147.08V-106.671V-66.4046L-81.0339 -46.4142L-115.448 -26.424L-115.873 14.2706L-116.157 54.8223L-150.571 74.8126L-184.844 94.803L-185.269 135.355L-185.694 176.049L-220.25 196.04L-254.806 216.03L-255.231 256.724L-255.656 297.419L-290.071 317.409L-324.344 337.4V380.236V423.072L-289.929 443.062L-255.656 463.053L-255.231 503.747L-254.806 544.442L-220.25 564.432L-185.694 584.423L-185.269 625.117L-184.844 665.669L-150.571 685.659L-116.157 705.649L-115.873 746.201L-115.448 786.896L-81.1755 806.886L-46.7609 826.876V867.142V907.551L-12.3463 927.542L21.9267 947.532L22.6348 988.369L23.3429 1029.21L57.3327 1048.91L91.3224 1068.62L91.7473 1109.17L92.0305 1149.86L127.72 1170.57C147.264 1181.99 163.975 1191.41 164.967 1191.7C165.817 1191.98 182.103 1183.13 200.798 1172.14L235.071 1152.29L269.202 1172.14C287.896 1182.99 303.758 1191.98 304.466 1191.98C305.175 1191.98 321.036 1182.99 339.731 1172.14L373.862 1152.29L407.993 1172.14C426.688 1182.99 442.55 1191.98 443.258 1191.98C443.966 1191.98 459.828 1182.99 478.522 1172.14L512.654 1152.29L546.785 1172.14C565.479 1182.99 581.341 1191.98 582.049 1191.98C582.757 1191.98 598.619 1182.99 617.314 1172.14L651.445 1152.29L685.576 1172.14C704.271 1182.99 720.132 1191.98 720.841 1191.98C721.549 1191.98 737.411 1182.99 756.105 1172.14L790.236 1152.29L824.368 1172.14C843.062 1182.99 858.924 1191.98 859.632 1191.98C860.34 1191.98 876.202 1182.99 894.896 1172.14L929.028 1152.29L963.301 1172.14C981.995 1183.13 998.282 1191.98 999.132 1191.7C1000.12 1191.41 1016.83 1181.99 1036.38 1170.57L1072.07 1149.86L1072.35 1109.17L1072.78 1068.62L1106.77 1048.91L1140.76 1029.21L1141.46 988.369L1142.17 947.532L1176.59 927.542L1210.86 907.551V867.142V826.876L1245.13 806.886L1279.55 786.896L1279.97 746.201L1280.26 705.649L1314.67 685.659L1348.94 665.669L1349.37 625.117L1349.79 584.423L1384.35 564.432L1418.9 544.442L1419.33 503.747L1419.75 463.053L1454.17 443.062L1488.44 423.072V380.236V337.4L1454.17 317.409L1419.75 297.419L1419.33 256.724L1418.9 216.03L1384.35 196.04L1349.79 176.049L1349.37 135.355L1348.94 94.803L1314.67 74.8126L1280.26 54.8223L1279.97 14.2706L1279.55 -26.424L1245.27 -46.4142L1210.86 -66.4046V-106.671V-147.08L1176.59 -167.07L1142.17 -187.06L1141.46 -227.898L1140.76 -268.735L1106.77 -288.44L1072.78 -308.144L1072.35 -348.696L1072.07 -389.391L1036.38 -410.095C1016.83 -421.518 1000.12 -430.942 999.132 -431.227C998.282 -431.513 981.995 -422.66 963.301 -411.666L929.028 -391.818L894.896 -411.666C876.202 -422.517 860.34 -431.513 859.632 -431.513C858.924 -431.513 843.062 -422.517 824.368 -411.666L790.236 -391.818L756.105 -411.666C737.411 -422.517 721.549 -431.513 720.841 -431.513C720.132 -431.513 704.271 -422.517 685.576 -411.666L651.445 -391.818L617.314 -411.666C598.619 -422.517 582.757 -431.513 582.049 -431.513C581.341 -431.513 565.479 -422.517 546.785 -411.666L512.654 -391.818L478.522 -411.666C459.828 -422.517 443.966 -431.513 443.258 -431.513C442.55 -431.513 426.688 -422.517 407.993 -411.666L373.862 -391.818L339.731 -411.666C321.036 -422.517 305.175 -431.513 304.466 -431.513C303.758 -431.513 287.896 -422.517 269.202 -411.666L235.071 -391.818L200.939 -411.666C182.245 -422.517 166.1 -431.513 165.25 -431.37C164.259 -431.37 147.405 -421.804 127.861 -410.381ZM198.532 -403.098L230.114 -384.679V-346.554V-308.43L198.532 -290.01C181.112 -279.872 166.383 -271.591 165.675 -271.591C165.108 -271.591 150.238 -279.872 132.818 -290.01L101.236 -308.43L101.236 -346.554V-384.536L132.393 -402.955C149.53 -413.093 164.259 -421.375 165.25 -421.375C166.1 -421.518 181.112 -413.236 198.532 -403.098ZM337.323 -403.098L368.905 -384.679V-346.554V-308.43L337.323 -290.01C319.903 -279.872 305.175 -271.591 304.466 -271.591C303.9 -271.591 289.029 -279.872 271.61 -290.01L240.027 -308.43V-346.554V-384.536L271.185 -402.955C288.321 -413.093 303.05 -421.375 304.041 -421.375C304.891 -421.518 319.903 -413.236 337.323 -403.098ZM476.115 -403.098L507.697 -384.536V-346.554V-308.43L476.115 -290.01C458.695 -279.872 443.966 -271.591 443.258 -271.591C442.55 -271.591 427.821 -279.872 410.401 -290.01L378.819 -308.43V-346.554V-384.536L409.976 -402.955C427.113 -413.093 441.842 -421.375 442.833 -421.375C443.683 -421.518 458.695 -413.236 476.115 -403.098ZM614.906 -403.098L646.488 -384.536V-346.554V-308.43L614.906 -290.01C597.486 -279.872 582.757 -271.591 582.049 -271.591C581.341 -271.591 566.612 -279.872 549.192 -290.01L517.61 -308.43V-346.554V-384.536L548.768 -402.955C565.904 -413.093 580.633 -421.375 581.624 -421.375C582.474 -421.518 597.486 -413.236 614.906 -403.098ZM753.697 -403.098L785.28 -384.536V-346.554V-308.43L753.697 -290.01C736.278 -279.872 721.549 -271.591 720.841 -271.591C720.132 -271.591 705.404 -279.872 687.984 -290.01L656.402 -308.43V-346.554V-384.536L687.559 -402.955C704.696 -413.093 719.424 -421.375 720.416 -421.375C721.266 -421.518 736.278 -413.236 753.697 -403.098ZM892.489 -403.098L924.071 -384.536V-346.554V-308.43L892.489 -290.01C875.069 -279.872 860.199 -271.591 859.632 -271.591C858.924 -271.591 844.195 -279.872 826.775 -290.01L795.193 -308.43V-346.554V-384.679L826.35 -402.955C843.487 -413.093 858.216 -421.375 859.207 -421.375C860.057 -421.518 875.069 -413.236 892.489 -403.098ZM1031.28 -403.098L1062.86 -384.536V-346.554V-308.43L1031.28 -290.01C1013.86 -279.872 998.99 -271.591 998.424 -271.591C997.715 -271.591 982.986 -279.872 965.567 -290.01L933.985 -308.43V-346.554V-384.679L965.142 -402.955C982.278 -413.093 997.007 -421.375 997.999 -421.375C998.848 -421.518 1013.86 -413.236 1031.28 -403.098ZM129.278 -281.729L160.718 -263.309V-225.185V-187.203L128.57 -168.498L96.2793 -149.793L64.1306 -168.498L31.8403 -187.203V-225.327V-263.595L62.9976 -281.729C80.1341 -291.867 95.0047 -300.005 95.996 -300.005C96.8458 -300.148 111.858 -291.867 129.278 -281.729ZM268.069 -281.729L299.51 -263.309V-225.185V-187.203L267.361 -168.498L235.071 -149.793L202.922 -168.498L170.632 -187.203V-225.327V-263.309L201.789 -281.586C218.926 -291.724 233.796 -300.005 234.787 -300.005C235.637 -300.148 250.649 -291.867 268.069 -281.729ZM406.719 -281.729L438.301 -263.309V-225.327V-187.203L406.152 -168.498L373.862 -149.793L341.713 -168.498L309.423 -187.203V-225.327V-263.309L340.581 -281.586C357.717 -291.724 372.446 -300.005 373.437 -300.005C374.287 -300.148 389.299 -291.867 406.719 -281.729ZM545.51 -281.729L577.092 -263.309V-225.327V-187.203L544.944 -168.498L512.654 -149.793L480.505 -168.498L448.215 -187.203V-225.327V-263.309L479.372 -281.586C496.508 -291.724 511.237 -300.005 512.229 -300.005C513.078 -300.148 528.091 -291.867 545.51 -281.729ZM684.443 -281.729L715.884 -263.309V-225.185V-187.203L683.735 -168.498L651.445 -149.793L619.296 -168.498L587.006 -187.203V-225.327V-263.309L618.163 -281.586C635.3 -291.724 650.17 -300.005 651.162 -300.005C652.011 -300.148 667.024 -291.867 684.443 -281.729ZM823.093 -281.729L854.675 -263.309V-225.327V-187.203L822.527 -168.498L790.236 -149.793L758.088 -168.498L725.798 -187.203V-225.327V-263.309L756.955 -281.586C774.091 -291.724 788.82 -300.005 789.811 -300.005C790.661 -300.148 805.673 -291.867 823.093 -281.729ZM961.885 -281.729L993.467 -263.309V-225.327V-187.203L961.318 -168.498L929.028 -149.793L896.879 -168.498L864.589 -187.203V-225.185V-263.309L895.746 -281.586C912.883 -291.724 927.612 -300.005 928.603 -300.005C929.453 -300.148 944.465 -291.867 961.885 -281.729ZM1101.1 -281.729L1132.26 -263.595V-225.327V-187.203L1100.11 -168.498L1067.82 -149.793L1035.67 -168.498L1003.38 -187.203V-225.185V-263.309L1034.54 -281.586C1051.67 -291.724 1066.69 -300.005 1067.82 -300.005C1068.95 -300.005 1083.96 -291.867 1101.1 -281.729ZM67.2463 -156.361L91.3224 -142.225L91.7473 -104.386L92.0305 -66.5473L59.457 -47.5565L26.8835 -28.7086L-5.68997 -47.5565L-38.2635 -66.5473V-104.529L-38.1218 -142.368L-5.9732 -161.073L26.1754 -179.778L34.6728 -175.066C39.3464 -172.496 54.0753 -164.071 67.2463 -156.361ZM1202.36 -104.529V-66.5473L1169.79 -47.5565L1137.21 -28.7086L1104.64 -47.5565L1072.07 -66.5473L1072.35 -104.386L1072.78 -142.225L1105.07 -161.073L1137.36 -179.921L1169.79 -161.073L1202.22 -142.368L1202.36 -104.529ZM198.957 -160.502L230.114 -142.225L230.539 -104.386L230.822 -66.5473L198.248 -47.5565L165.675 -28.7086L133.101 -47.6993L100.528 -66.6901L100.811 -104.386L101.236 -142.225L132.393 -160.502C149.53 -170.497 164.542 -178.636 165.675 -178.779C166.808 -178.779 181.82 -170.497 198.957 -160.502ZM337.748 -160.502L368.905 -142.225L369.33 -104.386L369.613 -66.5473L337.04 -47.5565L304.466 -28.7086L271.893 -47.6993L239.319 -66.6901L239.603 -104.386L240.027 -142.225L271.185 -160.502C288.321 -170.497 303.333 -178.636 304.466 -178.636C305.599 -178.636 320.612 -170.497 337.748 -160.502ZM476.539 -160.502L507.697 -142.225L508.122 -104.386L508.405 -66.5473L475.831 -47.5565L443.258 -28.7086L410.684 -47.5565L378.111 -66.5473L378.394 -104.386L378.819 -142.225L409.976 -160.502C427.113 -170.497 442.125 -178.636 443.258 -178.636C444.391 -178.636 459.403 -170.497 476.539 -160.502ZM615.331 -160.502L646.488 -142.225L646.913 -104.386L647.196 -66.5473L614.623 -47.5565L582.049 -28.7086L549.476 -47.5565L516.902 -66.5473L517.185 -104.386L517.61 -142.225L548.768 -160.502C565.904 -170.497 580.916 -178.636 582.049 -178.636C583.182 -178.636 598.194 -170.497 615.331 -160.502ZM754.122 -160.502L785.28 -142.225L785.704 -104.386L785.988 -66.5473L753.414 -47.5565L720.841 -28.7086L688.267 -47.5565L655.694 -66.5473L655.977 -104.386L656.402 -142.225L687.559 -160.502C704.696 -170.497 719.708 -178.636 720.841 -178.636C721.974 -178.636 736.986 -170.497 754.122 -160.502ZM892.914 -160.502L924.071 -142.225L924.496 -104.386L924.779 -66.6901L892.206 -47.6993L859.632 -28.7086L827.059 -47.5565L794.485 -66.5473L794.768 -104.386L795.193 -142.225L826.35 -160.502C843.487 -170.497 858.499 -178.779 859.632 -178.779C860.765 -178.636 875.777 -170.497 892.914 -160.502ZM1031.71 -160.502L1062.86 -142.225L1063.29 -104.386L1063.57 -66.6901L1031 -47.6993L998.424 -28.7086L965.85 -47.5565L933.277 -66.5473L933.56 -104.386L933.985 -142.225L965.142 -160.502C982.278 -170.497 997.291 -178.779 998.424 -178.779C999.557 -178.636 1014.57 -170.497 1031.71 -160.502ZM-9.51383 -39.5604L22.6348 -20.9979V16.8408V54.6796L-9.93868 73.5276L-42.3706 92.3756L-75.0857 73.5276L-107.659 54.6796V16.8408V-20.9979L-75.3689 -39.846C-57.6659 -50.1267 -42.7954 -58.5511 -42.3706 -58.4083C-41.9457 -58.2656 -27.0752 -49.8411 -9.51383 -39.5604ZM129.278 -39.5604L161.426 -20.9979V16.8408V54.6796L128.853 73.5276L96.4209 92.3756L63.7057 73.5276L31.1322 54.6796V16.8408L31.2739 -20.9979L63.4225 -39.846C81.1255 -50.1267 95.996 -58.4083 96.4209 -58.4083C96.8457 -58.2656 111.716 -49.8411 129.278 -39.5604ZM268.069 -39.5604L300.218 -20.9979V16.8408V54.6796L267.644 73.5276L235.212 92.3756L202.497 73.5276L169.924 54.6796V16.8408L170.065 -20.9979L202.214 -39.846C219.917 -50.1267 234.787 -58.4083 235.212 -58.4083C235.637 -58.2656 250.508 -49.8411 268.069 -39.5604ZM406.86 -39.5604L439.009 -20.9979V16.8408V54.6796L406.436 73.5276L373.862 92.5183L341.289 73.5276L308.715 54.6796V16.8408L308.857 -20.9979L341.005 -39.846C358.708 -50.1267 373.579 -58.4083 374.004 -58.4083C374.429 -58.2656 389.157 -49.8411 406.86 -39.5604ZM545.652 -39.5604L577.8 -20.9979V16.8408V54.6796L545.227 73.5276L512.654 92.5183L480.08 73.5276L447.507 54.6796V16.8408V-20.9979L479.797 -39.7032C497.5 -50.1267 512.37 -58.4083 512.795 -58.2656C513.22 -58.2656 527.949 -49.8411 545.652 -39.5604ZM684.443 -39.5604L716.592 -20.9979V16.8408V54.6796L684.018 73.5276L651.445 92.5183L618.871 73.5276L586.298 54.6796V16.8408V-20.9979L618.588 -39.7032C636.291 -50.1267 651.162 -58.4083 651.587 -58.2656C652.011 -58.2656 666.74 -49.8411 684.443 -39.5604ZM823.235 -39.5604L855.242 -20.9979L855.383 16.8408V54.6796L822.81 73.5276L790.236 92.5183L757.663 73.5276L725.089 54.6796V16.8408V-20.9979L757.38 -39.7032C775.083 -50.1267 789.953 -58.4083 790.378 -58.2656C790.803 -58.2656 805.673 -49.8411 823.235 -39.5604ZM962.026 -39.5604L994.033 -20.9979L994.175 16.8408V54.6796L961.601 73.5276L928.886 92.3756L896.454 73.5276L863.881 54.6796V16.8408V-20.9979L896.171 -39.846C913.874 -50.1267 928.744 -58.4083 929.169 -58.4083C929.594 -58.2656 944.465 -49.8411 962.026 -39.5604ZM1100.82 -39.5604L1132.82 -20.9979L1132.97 16.8408V54.6796L1100.39 73.5276L1067.68 92.3756L1035.25 73.5276L1002.67 54.6796V16.8408V-20.9979L1034.96 -39.846C1052.67 -50.1267 1067.54 -58.4083 1067.96 -58.4083C1068.39 -58.2656 1083.26 -49.8411 1100.82 -39.5604ZM1239.75 -39.5604L1271.76 -20.9979V16.8408V54.6796L1239.18 73.5276L1206.47 92.3756L1174.04 73.5276L1141.46 54.6796V16.8408V-20.9979L1173.75 -39.846C1191.46 -50.1267 1206.33 -58.4083 1206.89 -58.4083C1207.46 -58.2656 1222.33 -49.8411 1239.75 -39.5604ZM-79.1928 81.3809L-46.7609 100.229V138.21L-46.9025 176.049L-79.3344 194.897L-111.908 213.602L-144.198 194.754L-176.347 176.049L-176.772 138.068L-177.055 100.229L-144.906 81.3809C-127.062 71.1002 -112.474 62.5329 -112.191 62.5329C-111.908 62.5329 -97.179 71.1002 -79.1928 81.3809ZM59.457 81.3809L92.0305 100.372V138.21L91.8889 176.049L59.3154 194.897L26.8835 213.602L-5.40674 194.754L-37.5553 176.049L-37.9802 138.21L-38.2635 100.372L-6.11485 81.5237C11.7298 71.1001 26.317 62.6757 26.6003 62.6757C26.7419 62.5329 41.6124 71.1002 59.457 81.3809ZM198.248 81.3809L230.822 100.372V138.21L230.68 176.049L198.107 194.897L165.675 213.602L133.385 194.754L101.236 176.049L100.811 138.21L100.528 100.372L132.677 81.5237C150.521 71.1001 165.108 62.6757 165.392 62.6757C165.533 62.5329 180.404 71.1002 198.248 81.3809ZM337.04 81.3809L369.613 100.372V138.21L369.472 176.049L336.898 194.897L304.466 213.602L272.176 194.754L240.027 176.049L239.603 138.21L239.319 100.372L271.468 81.5237C289.313 71.1001 303.9 62.6757 304.183 62.6757C304.325 62.5329 319.195 71.1002 337.04 81.3809ZM475.831 81.3809L508.405 100.372L508.122 138.21L507.697 176.049L475.548 194.754L443.258 213.602L411.109 194.754L378.819 176.049L378.394 138.21L378.111 100.372L410.259 81.5237C428.104 71.1001 442.691 62.6757 442.975 62.6757C443.116 62.5329 457.987 71.1002 475.831 81.3809ZM614.623 81.3809L647.196 100.372L646.913 138.21L646.488 176.049L614.339 194.754L582.049 213.602L549.901 194.754L517.61 176.049L517.185 138.21L516.902 100.372L549.051 81.5237C566.895 71.1001 581.483 62.6757 581.766 62.6757C581.908 62.5329 596.778 71.1002 614.623 81.3809ZM753.414 81.3809L785.988 100.372L785.704 138.21L785.28 176.049L753.131 194.754L720.841 213.602L688.692 194.754L656.402 176.049L655.977 138.21L655.694 100.372L687.842 81.5237C705.687 71.1001 720.274 62.6757 720.557 62.6757C720.699 62.5329 735.57 71.1002 753.414 81.3809ZM892.206 81.3809L924.779 100.372L924.496 138.21L924.071 176.049L891.922 194.754L859.632 213.602L827.2 194.897L794.627 176.049L794.485 138.21V100.372L826.775 81.5237C844.478 71.1001 859.066 62.6757 859.349 62.6757C859.491 62.5329 874.361 71.1002 892.206 81.3809ZM1031 81.3809L1063.57 100.372L1063.29 138.21L1062.86 176.049L1030.71 194.754L998.424 213.602L965.992 194.897L933.418 176.049L933.277 138.21V100.372L965.567 81.5237C983.27 71.1001 997.857 62.6757 998.14 62.6757C998.282 62.5329 1013.15 71.1002 1031 81.3809ZM1169.79 81.3809L1202.36 100.372L1202.08 138.21L1201.65 176.049L1169.51 194.754L1137.21 213.602L1104.78 194.897L1072.21 176.049L1072.07 138.21V100.372L1104.36 81.5237C1122.06 71.1001 1136.65 62.6757 1136.93 62.6757C1137.07 62.5329 1151.94 71.1002 1169.79 81.3809ZM1308.86 81.3809L1341.15 100.229L1340.87 138.068L1340.45 176.049L1308.3 194.754L1276.01 213.602L1243.43 194.897L1211 176.049L1210.86 138.21V100.229L1243.15 81.5237C1260.85 71.1001 1275.58 62.6757 1275.86 62.5329C1276.15 62.5329 1291.02 70.9574 1308.86 81.3809ZM-147.031 203.464L-116.157 221.456L-116.44 259.295L-116.865 297.276L-148.022 315.41C-165.158 325.548 -180.171 333.687 -181.304 333.687C-182.437 333.687 -197.449 325.405 -214.585 315.41L-245.742 297.133L-246.167 259.152L-246.451 221.313L-214.302 202.608C-196.457 192.327 -181.162 184.188 -180.029 184.616C-178.896 185.045 -164.167 193.469 -147.031 203.464ZM-9.65545 202.608L22.6348 221.456L22.3516 259.295L21.9267 297.276L-9.23056 315.41C-26.3671 325.548 -41.3792 333.687 -42.5122 333.687C-43.6452 333.687 -58.6573 325.405 -75.7938 315.41L-106.951 297.133L-107.376 259.295L-107.659 221.456L-75.5106 202.751C-57.6659 192.327 -42.937 183.903 -42.6538 183.903C-42.3706 183.903 -27.5001 192.327 -9.65545 202.608ZM129.136 202.608L161.426 221.456L161.143 259.295L160.718 297.276L129.561 315.41C112.424 325.548 97.4122 333.687 96.2793 333.687C95.1463 333.687 80.1341 325.405 62.9976 315.41L31.8403 297.133L31.4155 259.295L31.1322 221.456L63.2809 202.751C81.1255 192.327 95.8544 183.903 96.1376 183.903C96.4208 183.903 111.291 192.327 129.136 202.608ZM267.927 202.608L300.218 221.456L299.934 259.295L299.51 297.276L268.352 315.41C251.216 325.548 236.204 333.687 235.071 333.687C233.938 333.687 218.926 325.405 201.789 315.41L170.632 297.133L170.207 259.295L169.924 221.456L202.072 202.751C219.917 192.327 234.646 183.903 234.929 183.903C235.212 183.903 250.083 192.327 267.927 202.608ZM406.719 202.608L439.009 221.456L438.726 259.295L438.301 297.133L407.144 315.41C390.007 325.405 374.995 333.687 373.862 333.687C372.729 333.687 357.717 325.405 340.581 315.41L309.423 297.133L308.998 259.295L308.715 221.456L340.864 202.751C358.708 192.327 373.437 183.903 373.72 183.903C374.004 183.903 388.874 192.327 406.719 202.608ZM545.51 202.608L577.8 221.456L577.517 259.295L577.092 297.133L545.935 315.41C528.799 325.405 513.786 333.687 512.654 333.687C511.521 333.687 496.508 325.405 479.372 315.41L448.215 297.133L447.79 259.295L447.507 221.456L479.655 202.751C497.5 192.327 512.229 183.903 512.512 183.903C512.795 183.903 527.666 192.327 545.51 202.608ZM684.302 202.608L716.592 221.456L716.309 259.295L715.884 297.133L684.727 315.41C667.59 325.405 652.578 333.687 651.445 333.687C650.312 333.687 635.3 325.405 618.163 315.41L587.006 297.133L586.581 259.295L586.298 221.456L618.447 202.751C636.291 192.327 651.02 183.903 651.303 183.903C651.587 183.903 666.457 192.327 684.302 202.608ZM823.093 202.608L855.383 221.456L855.1 259.295L854.675 297.133L823.518 315.41C806.381 325.405 791.369 333.687 790.236 333.687C789.103 333.687 774.091 325.405 756.955 315.41L725.798 297.133L725.373 259.295L725.089 221.456L757.238 202.751C775.083 192.327 789.811 183.903 790.095 183.903C790.378 183.903 805.248 192.327 823.093 202.608ZM961.885 202.608L994.175 221.456L993.891 259.295L993.467 297.133L962.309 315.41C945.173 325.405 930.161 333.687 929.028 333.687C927.895 333.687 912.883 325.548 895.746 315.41L864.589 297.276L864.164 259.295L863.881 221.456L896.029 202.751C913.874 192.327 928.603 183.903 928.886 183.903C929.169 183.903 944.04 192.327 961.885 202.608ZM1100.68 202.608L1132.97 221.456L1132.68 259.295L1132.26 297.133L1101.1 315.41C1083.96 325.405 1068.95 333.687 1067.82 333.687C1066.69 333.687 1051.67 325.548 1034.54 315.41L1003.38 297.276L1002.96 259.295L1002.67 221.456L1034.82 202.751C1052.67 192.327 1067.39 183.903 1067.68 183.903C1067.96 183.903 1082.83 192.327 1100.68 202.608ZM1239.47 202.608L1271.76 221.456L1271.47 259.295L1271.05 297.133L1239.89 315.41C1222.76 325.405 1207.74 333.687 1206.61 333.687C1205.48 333.687 1190.47 325.548 1173.33 315.41L1142.17 297.276L1141.75 259.295L1141.46 221.456L1173.61 202.751C1191.46 192.327 1206.19 183.903 1206.47 183.903C1206.75 183.903 1221.62 192.327 1239.47 202.608ZM1379.67 203.464L1410.55 221.313L1410.27 259.152L1409.84 297.133L1378.68 315.41C1361.55 325.405 1346.54 333.687 1345.4 333.687C1344.27 333.687 1329.26 325.548 1312.12 315.41L1280.96 297.276L1280.54 259.295L1280.26 221.456L1312.4 202.608C1330.67 192.042 1345.54 184.188 1346.82 184.759C1347.95 185.188 1362.82 193.612 1379.67 203.464ZM-217.843 323.692L-186.26 342.254V380.236V418.217L-218.126 436.78C-235.546 447.061 -250.841 455.057 -252.116 454.771C-253.249 454.343 -267.977 446.061 -284.689 436.209L-315.138 418.36V380.236V342.112L-283.981 323.835C-266.844 313.697 -252.116 305.415 -251.124 305.415C-250.274 305.272 -235.262 313.554 -217.843 323.692ZM-79.0512 323.692L-47.469 342.254V380.236V418.217L-79.0512 436.78C-96.4709 446.918 -111.2 455.199 -111.766 455.199C-112.474 455.199 -127.345 446.775 -144.906 436.494L-177.055 417.789V380.236V342.683L-145.473 324.12C-128.195 313.84 -113.324 305.558 -112.333 305.415C-111.483 305.272 -96.4709 313.554 -79.0512 323.692ZM59.7403 323.692L91.3224 342.254V380.236V418.217L59.7403 436.78C42.3205 446.918 27.5916 455.199 27.0251 455.199C26.317 455.199 11.4465 446.775 -6.11485 436.494L-38.2635 417.789V380.236V342.683L-6.68131 324.12C10.5968 313.84 25.4673 305.558 26.4587 305.415C27.3084 305.272 42.3205 313.554 59.7403 323.692ZM198.532 323.692L230.114 342.254V380.236V418.217L198.532 436.78C181.112 446.918 166.383 455.199 165.817 455.199C165.108 455.199 150.238 446.775 132.677 436.494L100.528 417.789V380.236V342.683L132.11 324.12C149.388 313.84 164.259 305.558 165.25 305.415C166.1 305.272 181.112 313.554 198.532 323.692ZM337.323 323.692L368.905 342.254V380.236V418.217L337.323 436.78C319.903 446.918 305.175 455.199 304.608 455.199C303.9 455.199 289.029 446.775 271.468 436.494L239.319 417.789V380.236V342.683L270.901 324.12C288.18 313.84 303.05 305.558 304.041 305.415C304.891 305.272 319.903 313.554 337.323 323.692ZM476.115 323.692L507.697 342.254V380.236V418.217L476.115 436.78C458.695 446.918 443.824 455.199 443.258 455.199C442.691 455.199 427.821 446.918 410.401 436.78L378.819 418.217V380.236V342.254L409.976 323.835C427.113 313.84 441.842 305.415 442.833 305.415C443.683 305.272 458.695 313.554 476.115 323.692ZM614.906 323.692L646.488 342.254V380.236V418.217L614.906 436.78C597.486 446.918 582.616 455.199 582.049 455.199C581.483 455.199 566.612 446.918 549.192 436.78L517.61 418.217V380.236V342.254L548.768 323.835C565.904 313.84 580.633 305.415 581.624 305.415C582.474 305.272 597.486 313.554 614.906 323.692ZM753.697 323.692L785.28 342.254V380.236V418.217L753.697 436.78C736.278 446.918 721.407 455.199 720.841 455.199C720.274 455.199 705.404 446.918 687.984 436.78L656.402 418.217V380.236V342.254L687.559 323.835C704.696 313.84 719.424 305.415 720.416 305.415C721.266 305.272 736.278 313.554 753.697 323.692ZM892.63 323.977L924.779 342.683V380.236V417.789L892.63 436.494C875.069 446.775 860.199 455.199 859.49 455.199C858.924 455.199 844.195 446.918 826.775 436.78L795.193 418.217V380.236V342.254L826.35 323.835C843.487 313.84 858.216 305.415 859.066 305.415C859.915 305.272 875.069 313.697 892.63 323.977ZM1031.42 323.977L1063.57 342.683V380.236V417.789L1031.42 436.494C1013.86 446.775 998.99 455.199 998.282 455.199C997.715 455.199 982.986 446.918 965.567 436.78L933.985 418.217V380.236V342.254L965.142 323.835C982.278 313.84 997.007 305.415 997.857 305.415C998.707 305.272 1013.86 313.697 1031.42 323.977ZM1170.21 323.977L1202.36 342.683V380.236V417.789L1170.21 436.494C1152.65 446.775 1137.78 455.199 1137.07 455.199C1136.51 455.199 1121.78 446.918 1104.36 436.78L1072.78 418.217V380.236V342.254L1103.93 323.835C1121.07 313.84 1135.8 305.415 1136.65 305.415C1137.5 305.272 1152.65 313.697 1170.21 323.977ZM1309 323.977L1341.15 342.683V380.236V417.789L1309 436.494C1291.44 446.775 1276.57 455.199 1275.86 455.199C1275.3 455.199 1260.57 446.918 1243.15 436.78L1211.57 418.217V380.236V342.254L1242.72 323.835C1259.86 313.84 1274.59 305.415 1275.44 305.415C1276.29 305.272 1291.44 313.697 1309 323.977ZM1447.8 323.692L1479.24 342.112V380.236V418.36L1448.79 436.209C1432.08 446.061 1417.35 454.343 1416.21 454.771C1414.94 455.057 1399.64 447.061 1382.22 436.78L1350.36 418.217V380.236V342.254L1381.52 323.835C1398.65 313.84 1413.52 305.415 1414.51 305.415C1415.36 305.272 1430.38 313.554 1447.8 323.692ZM-148.022 445.062L-116.865 463.196L-116.44 501.177L-116.157 539.016L-147.597 557.436C-165.017 567.431 -180.171 575.712 -181.304 575.712C-182.437 575.712 -197.59 567.574 -215.01 557.436L-246.451 539.159L-246.167 501.32L-245.742 463.338L-214.585 445.062C-197.449 435.066 -182.437 426.785 -181.304 426.785C-180.171 426.785 -165.158 434.924 -148.022 445.062ZM-9.23056 445.062L21.9267 463.196L22.3516 501.177L22.6348 539.016L-9.93868 557.864L-42.5122 576.855L-75.0857 557.864L-107.659 539.016L-107.376 501.177L-106.951 463.338L-75.7938 445.062C-58.6573 435.066 -43.6452 426.785 -42.5122 426.785C-41.3792 426.785 -26.3671 434.924 -9.23056 445.062ZM129.561 445.062L160.718 463.196L161.143 501.177L161.426 539.016L128.853 557.864L96.2793 576.855L63.7057 557.864L31.1322 539.016L31.4155 501.177L31.8403 463.338L62.9976 445.062C80.1341 435.066 95.1463 426.785 96.2793 426.785C97.4122 426.785 112.424 434.924 129.561 445.062ZM268.352 445.062L299.51 463.196L299.934 501.177L300.218 539.016L267.644 557.864L235.071 576.855L202.497 557.864L169.924 539.016L170.207 501.177L170.632 463.338L201.789 445.062C218.926 435.066 233.938 426.785 235.071 426.785C236.204 426.785 251.216 434.924 268.352 445.062ZM407.144 445.062L438.301 463.338L438.726 501.177L439.009 539.016L406.436 557.864L373.862 576.855L341.289 557.864L308.715 539.016L308.998 501.177L309.423 463.338L340.581 445.062C357.717 435.066 372.729 426.785 373.862 426.785C374.995 426.785 390.007 435.066 407.144 445.062ZM545.935 445.062L577.092 463.338L577.517 501.177L577.8 539.016L545.227 557.864L512.654 576.855L480.08 557.864L447.507 539.016L447.79 501.177L448.215 463.338L479.372 445.062C496.508 435.066 511.521 426.785 512.654 426.785C513.786 426.785 528.799 435.066 545.935 445.062ZM684.727 445.062L715.884 463.338L716.309 501.177L716.592 539.016L684.018 557.864L651.445 576.855L618.871 557.864L586.298 539.016L586.581 501.177L587.006 463.338L618.163 445.062C635.3 435.066 650.312 426.785 651.445 426.785C652.578 426.785 667.59 435.066 684.727 445.062ZM823.518 445.062L854.675 463.338L855.1 501.177L855.383 539.016L822.81 557.864L790.236 576.855L757.663 557.864L725.089 539.016L725.373 501.177L725.798 463.338L756.955 445.062C774.091 435.066 789.103 426.785 790.236 426.785C791.369 426.785 806.381 435.066 823.518 445.062ZM962.309 445.062L993.467 463.338L993.891 501.177L994.175 539.016L961.601 557.864L929.028 576.855L896.454 557.864L863.881 539.016L864.164 501.177L864.589 463.196L895.746 445.062C912.883 434.924 927.895 426.785 929.028 426.785C930.161 426.785 945.173 435.066 962.309 445.062ZM1101.1 445.062L1132.26 463.338L1132.68 501.177L1132.97 539.016L1100.39 557.864L1067.82 576.855L1035.25 557.864L1002.67 539.016L1002.96 501.177L1003.38 463.196L1034.54 445.062C1051.67 434.924 1066.69 426.785 1067.82 426.785C1068.95 426.785 1083.96 435.066 1101.1 445.062ZM1239.89 445.062L1271.05 463.338L1271.47 501.177L1271.76 539.016L1239.18 557.864L1206.61 576.855L1174.04 557.864L1141.46 539.016L1141.75 501.177L1142.17 463.196L1173.33 445.062C1190.47 434.924 1205.48 426.785 1206.61 426.785C1207.74 426.785 1222.76 435.066 1239.89 445.062ZM1378.68 445.062L1409.84 463.338L1410.27 501.32L1410.55 539.159L1379.11 557.436C1361.69 567.574 1346.54 575.712 1345.4 575.712C1344.27 575.712 1329.12 567.431 1311.7 557.436L1280.26 539.016L1280.54 501.177L1280.96 463.196L1312.12 445.062C1329.26 434.924 1344.27 426.785 1345.4 426.785C1346.54 426.785 1361.55 435.066 1378.68 445.062ZM-78.9095 565.86L-46.9025 584.423L-46.7609 622.261V660.243L-79.3344 679.091L-112.05 698.082L-144.623 679.234L-177.055 660.243L-176.772 622.404L-176.347 584.423L-144.481 565.717C-126.92 555.294 -112.333 547.012 -111.908 547.155C-111.341 547.155 -96.6125 555.579 -78.9095 565.86ZM59.8819 565.86L91.8889 584.423L92.0305 622.261V660.1L59.457 679.091L26.8835 697.939L-5.68997 679.091L-38.2635 660.1L-37.9802 622.261L-37.5553 584.423L-5.68997 565.717C11.8714 555.294 26.4587 547.012 26.8835 547.155C27.3084 547.155 42.1789 555.579 59.8819 565.86ZM198.673 565.86L230.68 584.423L230.822 622.261V660.1L198.248 679.091L165.675 697.939L133.101 679.091L100.528 660.1L100.811 622.261L101.236 584.423L133.101 565.717C150.663 555.294 165.25 547.012 165.675 547.155C166.1 547.155 180.97 555.579 198.673 565.86ZM337.465 565.86L369.472 584.423L369.613 622.261V660.1L337.04 679.091L304.466 697.939L271.893 679.091L239.319 660.1L239.603 622.261L240.027 584.423L271.893 565.717C289.454 555.294 304.042 547.012 304.466 547.155C304.891 547.155 319.762 555.579 337.465 565.86ZM475.265 565.575L507.697 584.423L508.122 622.261L508.405 660.1L475.831 679.091L443.258 697.939L410.684 679.091L378.111 660.1L378.394 622.261L378.819 584.423L410.684 565.717C428.246 555.294 442.55 546.869 442.691 546.727C442.833 546.584 457.42 555.151 475.265 565.575ZM614.056 565.575L646.488 584.423L646.913 622.261L647.196 660.1L614.623 679.091L582.049 697.939L549.476 679.091L516.902 660.1L517.185 622.261L517.61 584.423L549.476 565.717C567.037 555.294 581.341 546.869 581.483 546.727C581.624 546.584 596.212 555.151 614.056 565.575ZM752.848 565.575L785.28 584.423L785.704 622.261L785.988 660.1L753.414 679.091L720.841 697.939L688.267 679.091L655.694 660.1L655.977 622.261L656.402 584.423L688.267 565.717C705.829 555.294 720.133 546.869 720.274 546.727C720.416 546.584 735.003 555.151 752.848 565.575ZM891.639 565.575L924.071 584.423L924.496 622.261L924.779 660.1L892.206 679.091L859.632 697.939L827.059 679.091L794.485 660.1V622.261L794.627 584.423L826.775 565.717C844.478 555.294 858.924 546.869 859.066 546.727C859.207 546.584 873.794 555.151 891.639 565.575ZM1030.43 565.575L1062.86 584.423L1063.29 622.261L1063.57 660.1L1031 679.091L998.424 697.939L965.85 679.091L933.277 660.1V622.261L933.418 584.423L965.567 565.717C983.27 555.294 997.715 546.869 997.857 546.727C997.999 546.584 1012.59 555.151 1030.43 565.575ZM1169.22 565.575L1201.65 584.423L1202.08 622.261L1202.36 660.1L1169.79 679.091L1137.21 697.939L1104.64 679.091L1072.07 660.1V622.261L1072.21 584.423L1104.36 565.717C1122.06 555.294 1136.51 546.869 1136.65 546.727C1136.79 546.584 1151.38 555.151 1169.22 565.575ZM1308.01 565.575L1340.45 584.423L1340.87 622.404L1341.15 660.243L1308.72 679.234L1276.15 698.082L1243.43 679.091L1210.86 660.243V622.261L1211 584.423L1243.15 565.717C1260.85 555.294 1275.3 546.869 1275.44 546.727C1275.58 546.584 1290.17 555.151 1308.01 565.575ZM-9.37218 687.23L22.6348 705.792V743.631V781.47L-10.0803 800.318L-42.6538 819.309L-75.2273 800.318L-107.659 781.47V743.631V705.792L-75.3689 686.944C-57.6659 676.663 -42.7954 668.239 -42.2289 668.382C-41.8041 668.525 -26.9335 676.949 -9.37218 687.23ZM129.419 687.23L161.426 705.792V743.631V781.47L128.853 800.318L96.2793 819.166L63.7057 800.318L31.2739 781.47L31.1322 743.631V705.792L63.4225 686.944C81.1255 676.663 95.996 668.239 96.5625 668.382C96.9874 668.525 111.858 676.949 129.419 687.23ZM268.211 687.23L300.218 705.792V743.631V781.47L267.644 800.318L235.071 819.166L202.497 800.318L170.065 781.47L169.924 743.631V705.792L202.214 686.944C219.917 676.663 234.787 668.239 235.354 668.382C235.779 668.525 250.649 676.949 268.211 687.23ZM407.002 687.23L439.009 705.792V743.631V781.47L406.436 800.318L373.862 819.023L341.289 800.318L308.857 781.47L308.715 743.631V705.792L341.005 686.944C358.708 676.663 373.579 668.239 374.145 668.382C374.57 668.525 389.441 676.949 407.002 687.23ZM545.794 687.23L577.8 705.792V743.631V781.47L545.227 800.318L512.654 819.023L480.08 800.318L447.507 781.47V743.631V705.792L479.797 686.944C497.5 676.663 512.37 668.239 512.937 668.382C513.362 668.525 528.232 676.949 545.794 687.23ZM684.585 687.23L716.592 705.792V743.631V781.47L684.018 800.318L651.445 819.023L618.871 800.318L586.298 781.47V743.631V705.792L618.588 686.944C636.291 676.663 651.162 668.239 651.728 668.382C652.153 668.525 667.024 676.949 684.585 687.23ZM823.376 687.23L855.383 705.792V743.631L855.242 781.47L822.81 800.318L790.236 819.023L757.663 800.318L725.089 781.47V743.631V705.792L757.38 686.944C775.083 676.663 789.953 668.239 790.52 668.382C790.945 668.525 805.815 676.949 823.376 687.23ZM962.168 687.23L994.175 705.792V743.631L994.033 781.47L961.601 800.318L929.028 819.166L896.454 800.318L863.881 781.47V743.631V705.792L896.171 686.944C913.874 676.663 928.744 668.239 929.169 668.382C929.736 668.525 944.465 676.949 962.168 687.23ZM1100.96 687.23L1132.97 705.792V743.631L1132.82 781.47L1100.39 800.318L1067.82 819.166L1035.25 800.318L1002.67 781.47V743.631V705.792L1034.96 686.944C1052.67 676.663 1067.54 668.239 1067.96 668.382C1068.53 668.525 1083.26 676.949 1100.96 687.23ZM1239.75 687.23L1271.76 705.792V743.631V781.47L1239.33 800.318L1206.75 819.309L1174.18 800.318L1141.46 781.47V743.631V705.792L1173.75 686.944C1191.46 676.663 1206.33 668.239 1206.75 668.382C1207.32 668.525 1222.05 676.949 1239.75 687.23ZM59.7403 808.171L92.0305 827.019L91.7473 864.858L91.3224 902.697L59.0322 921.545L26.7419 940.393L-5.68997 921.545L-38.1218 902.839L-38.2635 865.001V827.019L-5.9732 808.314C11.7298 797.89 26.4587 789.323 26.7419 789.323C27.0252 789.323 41.8957 797.748 59.7403 808.171ZM198.532 808.171L230.822 827.019L230.539 864.858L230.114 902.697L198.957 920.974C181.82 930.969 166.808 939.25 165.675 939.25C164.542 939.108 149.53 930.969 132.393 920.974L101.236 902.697L100.811 864.858L100.528 827.162L132.677 808.314C150.521 797.89 165.25 789.323 165.533 789.323C165.817 789.323 180.687 797.748 198.532 808.171ZM337.323 808.171L369.613 827.019L369.33 864.858L368.905 902.697L337.748 920.974C320.612 930.969 305.599 939.25 304.466 939.25C303.333 939.108 288.321 930.969 271.185 920.974L240.027 902.697L239.603 864.858L239.319 827.162L271.468 808.314C289.313 797.89 304.042 789.323 304.325 789.323C304.608 789.323 319.478 797.748 337.323 808.171ZM475.973 808.171L508.405 827.019L508.122 864.858L507.697 902.697L476.539 920.974C459.403 930.969 444.391 939.108 443.258 939.108C442.125 939.108 427.113 930.969 409.976 920.974L378.819 902.697L378.394 864.858L378.111 827.019L410.259 808.171C428.104 797.89 442.833 789.466 442.975 789.323C443.258 789.323 458.128 797.748 475.973 808.171ZM614.764 808.171L647.196 827.019L646.913 864.858L646.488 902.697L615.331 920.974C598.194 930.969 583.182 939.108 582.049 939.108C580.916 939.108 565.904 930.969 548.768 920.974L517.61 902.697L517.185 864.858L516.902 827.019L549.051 808.171C566.895 797.89 581.624 789.466 581.766 789.323C582.049 789.323 596.92 797.748 614.764 808.171ZM753.556 808.171L785.988 827.019L785.704 864.858L785.28 902.697L754.122 920.974C736.986 930.969 721.974 939.108 720.841 939.108C719.708 939.108 704.696 930.969 687.559 920.974L656.402 902.697L655.977 864.858L655.694 827.019L687.842 808.171C705.687 797.89 720.416 789.466 720.557 789.323C720.841 789.323 735.711 797.748 753.556 808.171ZM892.347 808.171L924.779 827.162L924.496 864.858L924.071 902.697L892.914 920.974C875.777 930.969 860.765 939.108 859.632 939.108C858.499 939.108 843.487 930.969 826.35 920.974L795.193 902.697L794.768 864.858L794.485 827.019L826.634 808.171C844.478 797.89 859.207 789.323 859.49 789.323C859.774 789.323 874.503 797.89 892.347 808.171ZM1031.14 808.171L1063.57 827.162L1063.29 864.858L1062.86 902.697L1031.71 920.974C1014.57 930.969 999.557 939.108 998.424 939.25C997.291 939.25 982.278 930.969 965.142 920.974L933.985 902.697L933.56 864.858L933.277 827.019L965.425 808.171C983.27 797.89 997.999 789.323 998.282 789.323C998.565 789.323 1013.29 797.89 1031.14 808.171ZM1169.93 808.171L1202.36 827.019V865.001L1202.22 902.839L1169.79 921.545L1137.36 940.393L1105.07 921.545L1072.78 902.697L1072.35 864.858L1072.07 827.019L1104.22 808.171C1122.06 797.89 1136.79 789.323 1137.07 789.323C1137.36 789.323 1152.09 797.748 1169.93 808.171ZM130.552 930.255L161.426 948.103L161.143 985.942L160.718 1023.78L129.278 1042.2C111.858 1052.34 96.8458 1060.62 95.996 1060.48C95.0047 1060.48 80.1341 1052.34 62.9976 1042.2L31.8403 1024.07L31.4155 986.085L31.1322 948.103L63.2809 929.398C81.692 918.689 96.4209 910.978 97.6955 911.55C98.8285 911.978 113.699 920.402 130.552 930.255ZM269.344 930.255L300.218 948.103L299.934 985.942L299.51 1023.78L269.06 1041.63C252.349 1051.48 237.62 1059.76 236.345 1060.19C235.212 1060.48 219.917 1052.48 202.356 1042.34L170.632 1023.78L170.207 985.942L169.924 948.103L202.072 929.398C220.483 918.689 235.212 910.978 236.487 911.55C237.62 911.978 252.49 920.402 269.344 930.255ZM408.135 930.255L439.009 948.103L438.726 985.942L438.301 1023.78L406.719 1042.2C389.299 1052.34 374.57 1060.62 373.862 1060.62C373.154 1060.62 358.425 1052.34 341.005 1042.2L309.423 1023.78L308.998 985.942L308.715 948.103L340.864 929.398C359.275 918.689 374.004 910.978 375.278 911.55C376.411 911.978 391.282 920.402 408.135 930.255ZM546.926 930.255L577.8 948.103L577.517 985.942L577.092 1023.78L545.51 1042.2C528.091 1052.34 513.362 1060.62 512.654 1060.62C511.945 1060.62 497.216 1052.34 479.797 1042.2L448.215 1023.78L447.79 985.942L447.507 948.103L479.655 929.398C498.066 918.689 512.795 910.978 514.07 911.55C515.203 911.978 530.073 920.402 546.926 930.255ZM685.718 930.255L716.592 948.103L716.309 985.942L715.884 1023.78L685.435 1041.63C668.723 1051.48 653.994 1059.76 652.72 1060.19C651.587 1060.48 636.291 1052.48 618.73 1042.34L587.006 1023.78L586.581 985.942L586.298 948.103L618.447 929.398C636.858 918.689 651.587 910.978 652.861 911.55C653.994 911.978 668.865 920.402 685.718 930.255ZM824.509 930.255L855.383 948.103L855.1 985.942L854.675 1023.78L823.093 1042.2C805.673 1052.34 790.944 1060.62 790.236 1060.62C789.528 1060.62 774.799 1052.34 757.38 1042.2L725.798 1023.78L725.373 985.942L725.089 948.103L757.238 929.398C775.649 918.689 790.378 910.978 791.653 911.55C792.786 911.978 807.656 920.402 824.509 930.255ZM963.301 930.255L994.175 948.103L993.891 985.942L993.467 1023.78L961.743 1042.34C944.182 1052.48 928.886 1060.48 927.753 1060.19C926.479 1059.76 911.75 1051.48 895.038 1041.63L864.589 1023.78L864.164 985.942L863.881 948.103L896.029 929.398C914.44 918.689 929.169 910.978 930.444 911.55C931.577 911.978 946.448 920.402 963.301 930.255ZM1102.09 930.255L1132.97 948.103L1132.68 986.085L1132.26 1024.07L1101.1 1042.2C1083.96 1052.34 1069.09 1060.48 1068.1 1060.48C1067.25 1060.62 1052.24 1052.34 1034.82 1042.2L1003.38 1023.78L1002.96 985.942L1002.67 948.103L1034.82 929.398C1053.23 918.689 1067.96 910.978 1069.24 911.55C1070.37 911.978 1085.24 920.402 1102.09 930.255ZM198.532 1050.48L230.114 1068.9V1107.03V1145.15L198.532 1163.57C181.112 1173.71 166.241 1181.99 165.675 1181.99C164.967 1181.99 150.238 1173.71 132.818 1163.57L101.236 1145.01V1107.03V1068.9L132.393 1050.62C149.53 1040.49 164.259 1032.21 165.25 1032.21C166.1 1032.06 181.112 1040.34 198.532 1050.48ZM337.323 1050.48L368.905 1068.9V1107.03V1145.15L337.323 1163.57C319.903 1173.71 305.033 1181.99 304.466 1181.99C303.758 1181.99 289.029 1173.71 271.61 1163.57L240.027 1145.01V1107.03V1068.9L271.185 1050.62C288.321 1040.49 303.05 1032.21 304.041 1032.21C304.891 1032.06 319.903 1040.34 337.323 1050.48ZM476.115 1050.48L507.697 1068.9V1107.03V1145.01L476.115 1163.57C458.695 1173.71 443.966 1181.99 443.258 1181.99C442.55 1181.99 427.821 1173.71 410.401 1163.57L378.819 1145.01V1107.03V1068.9L409.976 1050.62C427.113 1040.49 441.842 1032.21 442.833 1032.21C443.683 1032.06 458.695 1040.34 476.115 1050.48ZM614.906 1050.48L646.488 1068.9V1107.03V1145.01L614.906 1163.57C597.486 1173.71 582.757 1181.99 582.049 1181.99C581.341 1181.99 566.612 1173.71 549.192 1163.57L517.61 1145.01V1107.03V1068.9L548.768 1050.62C565.904 1040.49 580.633 1032.21 581.624 1032.21C582.474 1032.06 597.486 1040.34 614.906 1050.48ZM753.697 1050.48L785.28 1068.9V1107.03V1145.01L753.697 1163.57C736.278 1173.71 721.549 1181.99 720.841 1181.99C720.132 1181.99 705.404 1173.71 687.984 1163.57L656.402 1145.01V1107.03V1068.9L687.559 1050.62C704.696 1040.49 719.424 1032.21 720.416 1032.21C721.266 1032.06 736.278 1040.34 753.697 1050.48ZM892.489 1050.48L924.071 1068.9V1107.03V1145.01L892.489 1163.57C875.069 1173.71 860.34 1181.99 859.632 1181.99C859.066 1181.99 844.195 1173.71 826.775 1163.57L795.193 1145.15V1107.03V1068.9L826.35 1050.62C843.487 1040.49 858.216 1032.21 859.207 1032.21C860.057 1032.06 875.069 1040.34 892.489 1050.48ZM1031.28 1050.48L1062.86 1068.9V1107.03V1145.01L1031.28 1163.57C1013.86 1173.71 999.132 1181.99 998.424 1181.99C997.857 1181.99 982.986 1173.71 965.567 1163.57L933.985 1145.15V1107.03V1068.9L965.142 1050.62C982.278 1040.49 997.007 1032.21 997.999 1032.21C998.848 1032.06 1013.86 1040.34 1031.28 1050.48Z" stroke="black" stroke-width="12.7362"/>
<path d="M582.179 307.152C583.874 308.102 586.153 309.394 588.892 310.959C595.137 314.528 603.704 319.463 613.066 324.857L643.608 342.664V387.595L643.303 414.836L612.746 432.615L612.738 432.619L583.56 449.651H580.698L551.66 432.626L551.631 432.608L520.935 414.828L520.531 378.806L520.262 342.868L550.759 324.988C560.112 319.525 568.606 314.589 574.793 311.021C577.554 309.429 579.847 308.116 581.548 307.152H582.179Z" fill="white"/>
<path d="M373.114 188.95C374.774 189.881 376.995 191.138 379.66 192.661C385.8 196.169 394.222 201.022 403.427 206.326L433.51 223.865V257.572L433.498 259.27L433.1 294.631L403.112 312.08L403.104 312.083L374.042 329.048H372.088L343.165 312.09L343.135 312.073L313.01 294.623L312.614 259.27L312.349 224L342.278 206.454H342.279C351.474 201.082 359.825 196.229 365.908 192.722C368.593 191.174 370.828 189.895 372.494 188.95H373.114Z" fill="white"/>
<path d="M647.673 673.411C649.328 674.337 651.597 675.622 654.349 677.195C657.364 678.918 660.94 680.971 664.891 683.244L677.691 690.615L707.289 707.871V725.697L707.163 742.532V742.533L706.774 777.168L677.38 794.271L677.373 794.275L649.559 810.51H646.304L618.625 794.282L618.61 794.273L618.595 794.265L589.068 777.161L588.679 742.508L588.42 707.938L617.754 690.74C626.785 685.465 634.986 680.7 640.959 677.255C643.732 675.657 646.014 674.35 647.673 673.411Z" fill="white"/>
<path d="M579.747 792.411C581.401 793.337 583.671 794.622 586.423 796.195C589.438 797.918 593.013 799.971 596.965 802.244L609.765 809.615L639.363 826.872V844.566L639.236 861.532V861.533L638.848 896.168L609.454 913.271L609.446 913.275L581.854 929.381H578.158L550.698 913.282L550.684 913.273L550.669 913.265L521.142 896.161L520.753 861.508L520.494 826.938L549.828 809.74C558.859 804.465 567.06 799.7 573.033 796.255C575.806 794.657 578.088 793.35 579.747 792.411Z" fill="white"/>
<path d="M304.094 70.0786C305.719 70.9898 307.881 72.2157 310.472 73.6958C313.487 75.4186 317.062 77.4716 321.014 79.7446L333.813 87.1157L363.412 104.373V122.067L363.285 139.033V139.034L362.896 173.669L333.503 190.772L333.495 190.776L304.564 207.664H303.539L274.747 190.783L274.732 190.774L274.718 190.766L245.19 173.662L244.802 139.009L244.543 104.439L273.877 87.2407C282.907 81.9658 291.108 77.2005 297.082 73.7563C299.694 72.2506 301.87 71.0037 303.501 70.0786H304.094Z" fill="white"/>
<path d="M514.013 430.938C515.731 431.899 518.095 433.238 520.965 434.878C527.211 438.447 535.778 443.382 545.14 448.776L575.682 466.583V511.515L575.376 538.755L544.82 556.534L544.812 556.538L515.863 573.437H512.544L483.734 556.545L483.705 556.527L453.008 538.747L452.605 502.726L452.335 466.787L482.833 448.907C492.185 443.444 500.679 438.508 506.867 434.94C509.758 433.273 512.136 431.913 513.858 430.938H514.013Z" fill="white"/>
</g>
</g>
<defs>
<filter id="filter0_d_5070_3169" x="143.932" y="125.282" width="736.137" height="812.636" filterUnits="userSpaceOnUse" color-interpolation-filters="sRGB">
<feFlood flood-opacity="0" result="BackgroundImageFix"/>
<feColorMatrix in="SourceAlpha" type="matrix" values="0 0 0 0 0 0 0 0 0 0 0 0 0 0 0 0 0 0 127 0" result="hardAlpha"/>
<feOffset dy="20"/>
<feGaussianBlur stdDeviation="15"/>
<feComposite in2="hardAlpha" operator="out"/>
<feColorMatrix type="matrix" values="0 0 0 0 0 0 0 0 0 0 0 0 0 0 0 0 0 0 0.3 0"/>
<feBlend mode="normal" in2="BackgroundImageFix" result="effect1_dropShadow_5070_3169"/>
<feBlend mode="normal" in="SourceGraphic" in2="effect1_dropShadow_5070_3169" result="shape"/>
</filter>
<linearGradient id="paint0_linear_5070_3169" x1="480.5" y1="-78" x2="480.5" y2="1150" gradientUnits="userSpaceOnUse">
<stop offset="0.225962" stop-color="white"/>
<stop offset="0.991287" stop-color="#F4F4F4"/>
</linearGradient>
</defs>
</svg>
