<svg width="1024" height="1024" viewBox="0 0 1024 1024" fill="none" xmlns="http://www.w3.org/2000/svg">
<rect width="1024" height="1024" fill="#F18D8D"/>
<rect width="1024" height="1024" fill="url(#paint0_linear_5070_1745)"/>
<g filter="url(#filter0_d_5070_1745)">
<path d="M797.095 142.25C822.914 142.25 843.845 163.181 843.845 189V325.85C843.845 351.669 822.914 372.6 797.095 372.6H644.434C636.752 372.6 631.345 378.483 631.345 384.763V835C631.345 860.819 610.414 881.75 584.595 881.75H440.095C414.275 881.75 393.345 860.819 393.345 835V384.803C393.345 378.509 387.923 372.64 380.256 372.64H227.595C201.775 372.64 180.845 351.709 180.845 325.89V189C180.845 163.181 201.775 142.25 227.595 142.25H797.095Z" fill="black" stroke="white" stroke-width="25.5"/>
<mask id="mask0_5070_1745" style="mask-type:alpha" maskUnits="userSpaceOnUse" x="193" y="155" width="639" height="714">
<path d="M193.595 325.89C193.595 344.667 208.817 359.89 227.595 359.89H380.256C394.509 359.89 406.095 371.02 406.095 384.803V835C406.095 853.778 421.317 869 440.095 869H584.595C603.372 869 618.595 853.778 618.595 835V384.763C618.595 371.02 630.139 359.85 644.433 359.85H797.095C815.872 359.85 831.095 344.627 831.095 325.85V189C831.095 170.222 815.872 155 797.095 155H227.595C208.817 155 193.595 170.222 193.595 189V325.89Z" fill="#FCB732"/>
</mask>
<g mask="url(#mask0_5070_1745)">
<path d="M127.861 -410.367L92.0296 -389.378L91.7464 -348.683L91.3215 -308.131L57.3317 -288.426L23.3419 -268.722L22.6338 -227.884L21.9257 -187.047L-12.3474 -167.057L-46.762 -147.066V-106.657V-66.3911L-81.035 -46.4006L-115.45 -26.4104L-115.875 14.2843L-116.158 54.836L-150.572 74.8264L-184.845 94.8167L-185.27 135.369L-185.695 176.063L-220.252 196.053L-254.808 216.044L-255.233 256.738L-255.658 297.433L-290.072 317.423L-324.345 337.414V380.25V423.086L-289.931 443.077L-255.658 463.067L-255.233 503.762L-254.808 544.456L-220.252 564.447L-185.695 584.437L-185.27 625.132L-184.845 665.683L-150.572 685.674L-116.158 705.664L-115.875 746.216L-115.45 786.91L-81.1767 806.901L-46.762 826.891V867.157V907.566L-12.3474 927.557L21.9257 947.547L22.6338 988.384L23.3419 1029.22L57.3317 1048.93L91.3215 1068.63L91.7464 1109.18L92.0296 1149.88L127.719 1170.58C147.263 1182 163.975 1191.43 164.966 1191.71C165.816 1192 182.102 1183.15 200.797 1172.15L235.07 1152.3L269.201 1172.15C287.896 1183 303.758 1192 304.466 1192C305.174 1192 321.036 1183 339.73 1172.15L373.862 1152.3L407.993 1172.15C426.687 1183 442.549 1192 443.257 1192C443.965 1192 459.827 1183 478.522 1172.15L512.653 1152.3L546.785 1172.15C565.479 1183 581.341 1192 582.049 1192C582.757 1192 598.619 1183 617.313 1172.15L651.445 1152.3L685.576 1172.15C704.271 1183 720.132 1192 720.84 1192C721.549 1192 737.411 1183 756.105 1172.15L790.236 1152.3L824.368 1172.15C843.062 1183 858.924 1192 859.632 1192C860.34 1192 876.202 1183 894.897 1172.15L929.028 1152.3L963.301 1172.15C981.995 1183.15 998.282 1192 999.132 1191.71C1000.12 1191.43 1016.83 1182 1036.38 1170.58L1072.07 1149.88L1072.35 1109.18L1072.78 1068.63L1106.77 1048.93L1140.76 1029.22L1141.46 988.384L1142.17 947.547L1176.59 927.557L1210.86 907.566V867.157V826.891L1245.13 806.901L1279.55 786.91L1279.97 746.216L1280.26 705.664L1314.67 685.674L1348.94 665.683L1349.37 625.132L1349.79 584.437L1384.35 564.447L1418.91 544.456L1419.33 503.762L1419.76 463.067L1454.17 443.077L1488.44 423.086V380.25V337.414L1454.17 317.423L1419.76 297.433L1419.33 256.738L1418.91 216.044L1384.35 196.053L1349.79 176.063L1349.37 135.369L1348.94 94.8167L1314.67 74.8264L1280.26 54.836L1279.97 14.2843L1279.55 -26.4104L1245.27 -46.4006L1210.86 -66.3911V-106.657V-147.066L1176.59 -167.057L1142.17 -187.047L1141.46 -227.884L1140.76 -268.722L1106.77 -288.426L1072.78 -308.131L1072.35 -348.683L1072.07 -389.378L1036.38 -410.082C1016.83 -421.505 1000.12 -430.929 999.132 -431.214C998.282 -431.5 981.995 -422.647 963.301 -411.652L929.028 -391.805L894.897 -411.652C876.202 -422.504 860.34 -431.5 859.632 -431.5C858.924 -431.5 843.062 -422.504 824.368 -411.652L790.236 -391.805L756.105 -411.652C737.411 -422.504 721.549 -431.5 720.84 -431.5C720.132 -431.5 704.271 -422.504 685.576 -411.652L651.445 -391.805L617.313 -411.652C598.619 -422.504 582.757 -431.5 582.049 -431.5C581.341 -431.5 565.479 -422.504 546.785 -411.652L512.653 -391.805L478.522 -411.652C459.827 -422.504 443.965 -431.5 443.257 -431.5C442.549 -431.5 426.687 -422.504 407.993 -411.652L373.862 -391.805L339.73 -411.652C321.036 -422.504 305.174 -431.5 304.466 -431.5C303.758 -431.5 287.896 -422.504 269.201 -411.652L235.07 -391.805L200.939 -411.652C182.244 -422.504 166.099 -431.5 165.249 -431.357C164.258 -431.357 147.405 -421.79 127.861 -410.367ZM198.531 -403.085L230.113 -384.666V-346.541V-308.417L198.531 -289.997C181.111 -279.859 166.382 -271.577 165.674 -271.577C165.108 -271.577 150.237 -279.859 132.817 -289.997L101.235 -308.417L101.235 -346.541V-384.523L132.392 -402.942C149.529 -413.08 164.258 -421.362 165.249 -421.362C166.099 -421.505 181.111 -413.223 198.531 -403.085ZM337.322 -403.085L368.905 -384.666V-346.541V-308.417L337.322 -289.997C319.903 -279.859 305.174 -271.577 304.466 -271.577C303.899 -271.577 289.029 -279.859 271.609 -289.997L240.027 -308.417V-346.541V-384.523L271.184 -402.942C288.321 -413.08 303.049 -421.362 304.041 -421.362C304.891 -421.505 319.903 -413.223 337.322 -403.085ZM476.114 -403.085L507.696 -384.523V-346.541V-308.417L476.114 -289.997C458.694 -279.859 443.965 -271.577 443.257 -271.577C442.549 -271.577 427.82 -279.859 410.4 -289.997L378.818 -308.417V-346.541V-384.523L409.976 -402.942C427.112 -413.08 441.841 -421.362 442.832 -421.362C443.682 -421.505 458.694 -413.223 476.114 -403.085ZM614.906 -403.085L646.488 -384.523V-346.541V-308.417L614.906 -289.997C597.486 -279.859 582.757 -271.577 582.049 -271.577C581.341 -271.577 566.612 -279.859 549.192 -289.997L517.61 -308.417V-346.541V-384.523L548.767 -402.942C565.904 -413.08 580.633 -421.362 581.624 -421.362C582.474 -421.505 597.486 -413.223 614.906 -403.085ZM753.697 -403.085L785.279 -384.523V-346.541V-308.417L753.697 -289.997C736.278 -279.859 721.549 -271.577 720.84 -271.577C720.132 -271.577 705.403 -279.859 687.984 -289.997L656.402 -308.417V-346.541V-384.523L687.559 -402.942C704.695 -413.08 719.424 -421.362 720.416 -421.362C721.265 -421.505 736.278 -413.223 753.697 -403.085ZM892.489 -403.085L924.071 -384.523V-346.541V-308.417L892.489 -289.997C875.069 -279.859 860.199 -271.577 859.632 -271.577C858.924 -271.577 844.195 -279.859 826.775 -289.997L795.193 -308.417V-346.541V-384.666L826.35 -402.942C843.487 -413.08 858.216 -421.362 859.207 -421.362C860.057 -421.505 875.069 -413.223 892.489 -403.085ZM1031.28 -403.085L1062.86 -384.523V-346.541V-308.417L1031.28 -289.997C1013.86 -279.859 998.99 -271.577 998.424 -271.577C997.716 -271.577 982.987 -279.859 965.567 -289.997L933.985 -308.417V-346.541V-384.666L965.142 -402.942C982.279 -413.08 997.007 -421.362 997.999 -421.362C998.848 -421.505 1013.86 -413.223 1031.28 -403.085ZM129.277 -281.715L160.717 -263.296V-225.171V-187.19L128.569 -168.484L96.2783 -149.779L64.1297 -168.484L31.8393 -187.19V-225.314V-263.581L62.9966 -281.715C80.1332 -291.853 95.0037 -299.992 95.9951 -299.992C96.8448 -300.135 111.857 -291.853 129.277 -281.715ZM268.068 -281.715L299.509 -263.296V-225.171V-187.19L267.36 -168.484L235.07 -149.779L202.921 -168.484L170.631 -187.19V-225.314V-263.296L201.788 -281.573C218.925 -291.711 233.795 -299.992 234.787 -299.992C235.636 -300.135 250.649 -291.853 268.068 -281.715ZM406.718 -281.715L438.3 -263.296V-225.314V-187.19L406.152 -168.484L373.862 -149.779L341.713 -168.484L309.423 -187.19V-225.314V-263.296L340.58 -281.573C357.716 -291.711 372.445 -299.992 373.437 -299.992C374.286 -300.135 389.299 -291.853 406.718 -281.715ZM545.51 -281.715L577.092 -263.296V-225.314V-187.19L544.943 -168.484L512.653 -149.779L480.504 -168.484L448.214 -187.19V-225.314V-263.296L479.371 -281.573C496.508 -291.711 511.237 -299.992 512.228 -299.992C513.078 -300.135 528.09 -291.853 545.51 -281.715ZM684.443 -281.715L715.884 -263.296V-225.171V-187.19L683.735 -168.484L651.445 -149.779L619.296 -168.484L587.006 -187.19V-225.314V-263.296L618.163 -281.573C635.3 -291.711 650.17 -299.992 651.161 -299.992C652.011 -300.135 667.023 -291.853 684.443 -281.715ZM823.093 -281.715L854.675 -263.296V-225.314V-187.19L822.527 -168.484L790.236 -149.779L758.088 -168.484L725.797 -187.19V-225.314V-263.296L756.955 -281.573C774.091 -291.711 788.82 -299.992 789.811 -299.992C790.661 -300.135 805.673 -291.853 823.093 -281.715ZM961.885 -281.715L993.467 -263.296V-225.314V-187.19L961.318 -168.484L929.028 -149.779L896.879 -168.484L864.589 -187.19V-225.171V-263.296L895.746 -281.573C912.883 -291.711 927.612 -299.992 928.603 -299.992C929.453 -300.135 944.465 -291.853 961.885 -281.715ZM1101.1 -281.715L1132.26 -263.581V-225.314V-187.19L1100.11 -168.484L1067.82 -149.779L1035.67 -168.484L1003.38 -187.19V-225.171V-263.296L1034.54 -281.573C1051.67 -291.711 1066.69 -299.992 1067.82 -299.992C1068.95 -299.992 1083.96 -291.853 1101.1 -281.715ZM67.2454 -156.347L91.3215 -142.211L91.7464 -104.373L92.0296 -66.5337L59.456 -47.543L26.8825 -28.695L-5.69103 -47.543L-38.2646 -66.5337V-104.515L-38.1229 -142.354L-5.97426 -161.059L26.1744 -179.765L34.6718 -175.053C39.3454 -172.482 54.0743 -164.058 67.2454 -156.347ZM1202.36 -104.515V-66.5337L1169.79 -47.543L1137.22 -28.695L1104.64 -47.543L1072.07 -66.5337L1072.35 -104.373L1072.78 -142.211L1105.07 -161.059L1137.36 -179.907L1169.79 -161.059L1202.22 -142.354L1202.36 -104.515ZM198.956 -160.488L230.113 -142.211L230.538 -104.373L230.821 -66.5337L198.248 -47.543L165.674 -28.695L133.101 -47.6858L100.527 -66.6765L100.81 -104.373L101.235 -142.211L132.392 -160.488C149.529 -170.483 164.541 -178.622 165.674 -178.765C166.807 -178.765 181.819 -170.483 198.956 -160.488ZM337.747 -160.488L368.905 -142.211L369.33 -104.373L369.613 -66.5337L337.039 -47.543L304.466 -28.695L271.892 -47.6858L239.319 -66.6765L239.602 -104.373L240.027 -142.211L271.184 -160.488C288.321 -170.483 303.333 -178.622 304.466 -178.622C305.599 -178.622 320.611 -170.483 337.747 -160.488ZM476.539 -160.488L507.696 -142.211L508.121 -104.373L508.404 -66.5337L475.831 -47.543L443.257 -28.695L410.684 -47.543L378.11 -66.5337L378.393 -104.373L378.818 -142.211L409.976 -160.488C427.112 -170.483 442.124 -178.622 443.257 -178.622C444.39 -178.622 459.402 -170.483 476.539 -160.488ZM615.331 -160.488L646.488 -142.211L646.913 -104.373L647.196 -66.5337L614.622 -47.543L582.049 -28.695L549.475 -47.543L516.902 -66.5337L517.185 -104.373L517.61 -142.211L548.767 -160.488C565.904 -170.483 580.916 -178.622 582.049 -178.622C583.182 -178.622 598.194 -170.483 615.331 -160.488ZM754.122 -160.488L785.279 -142.211L785.704 -104.373L785.988 -66.5337L753.414 -47.543L720.84 -28.695L688.267 -47.543L655.693 -66.5337L655.977 -104.373L656.402 -142.211L687.559 -160.488C704.695 -170.483 719.707 -178.622 720.84 -178.622C721.973 -178.622 736.986 -170.483 754.122 -160.488ZM892.914 -160.488L924.071 -142.211L924.496 -104.373L924.779 -66.6765L892.206 -47.6858L859.632 -28.695L827.059 -47.543L794.485 -66.5337L794.768 -104.373L795.193 -142.211L826.35 -160.488C843.487 -170.483 858.499 -178.765 859.632 -178.765C860.765 -178.622 875.777 -170.483 892.914 -160.488ZM1031.71 -160.488L1062.86 -142.211L1063.29 -104.373L1063.57 -66.6765L1031 -47.6858L998.424 -28.695L965.85 -47.543L933.277 -66.5337L933.56 -104.373L933.985 -142.211L965.142 -160.488C982.279 -170.483 997.291 -178.765 998.424 -178.765C999.557 -178.622 1014.57 -170.483 1031.71 -160.488ZM-9.5149 -39.5468L22.6338 -20.9843V16.8545V54.6933L-9.93974 73.5413L-42.3717 92.3894L-75.0868 73.5413L-107.66 54.6933V16.8545V-20.9843L-75.3701 -39.8324C-57.6671 -50.1131 -42.7965 -58.5376 -42.3717 -58.3948C-41.9468 -58.252 -27.0763 -49.8276 -9.5149 -39.5468ZM129.277 -39.5468L161.425 -20.9843V16.8545V54.6933L128.852 73.5413L96.4199 92.3894L63.7048 73.5413L31.1312 54.6933V16.8545L31.2729 -20.9843L63.4216 -39.8324C81.1246 -50.1131 95.9951 -58.3948 96.4199 -58.3948C96.8448 -58.252 111.715 -49.8276 129.277 -39.5468ZM268.068 -39.5468L300.217 -20.9843V16.8545V54.6933L267.643 73.5413L235.212 92.3894L202.496 73.5413L169.923 54.6933V16.8545L170.064 -20.9843L202.213 -39.8324C219.916 -50.1131 234.787 -58.3948 235.212 -58.3948C235.636 -58.252 250.507 -49.8276 268.068 -39.5468ZM406.86 -39.5468L439.009 -20.9843V16.8545V54.6933L406.435 73.5413L373.862 92.5321L341.288 73.5413L308.714 54.6933V16.8545L308.856 -20.9843L341.005 -39.8324C358.708 -50.1131 373.578 -58.3948 374.003 -58.3948C374.428 -58.252 389.157 -49.8276 406.86 -39.5468ZM545.652 -39.5468L577.8 -20.9843V16.8545V54.6933L545.227 73.5413L512.653 92.5321L480.08 73.5413L447.506 54.6933V16.8545V-20.9843L479.796 -39.6896C497.499 -50.1131 512.37 -58.3948 512.795 -58.252C513.22 -58.252 527.949 -49.8276 545.652 -39.5468ZM684.443 -39.5468L716.592 -20.9843V16.8545V54.6933L684.018 73.5413L651.445 92.5321L618.871 73.5413L586.298 54.6933V16.8545V-20.9843L618.588 -39.6896C636.291 -50.1131 651.161 -58.3948 651.586 -58.252C652.011 -58.252 666.74 -49.8276 684.443 -39.5468ZM823.235 -39.5468L855.242 -20.9843L855.383 16.8545V54.6933L822.81 73.5413L790.236 92.5321L757.663 73.5413L725.089 54.6933V16.8545V-20.9843L757.379 -39.6896C775.083 -50.1131 789.953 -58.3948 790.378 -58.252C790.803 -58.252 805.673 -49.8276 823.235 -39.5468ZM962.026 -39.5468L994.033 -20.9843L994.175 16.8545V54.6933L961.601 73.5413L928.886 92.3894L896.454 73.5413L863.881 54.6933V16.8545V-20.9843L896.171 -39.8324C913.874 -50.1131 928.745 -58.3948 929.169 -58.3948C929.594 -58.252 944.465 -49.8276 962.026 -39.5468ZM1100.82 -39.5468L1132.82 -20.9843L1132.97 16.8545V54.6933L1100.39 73.5413L1067.68 92.3894L1035.25 73.5413L1002.67 54.6933V16.8545V-20.9843L1034.96 -39.8324C1052.67 -50.1131 1067.54 -58.3948 1067.96 -58.3948C1068.39 -58.252 1083.26 -49.8276 1100.82 -39.5468ZM1239.75 -39.5468L1271.76 -20.9843V16.8545V54.6933L1239.18 73.5413L1206.47 92.3894L1174.04 73.5413L1141.46 54.6933V16.8545V-20.9843L1173.75 -39.8324C1191.46 -50.1131 1206.33 -58.3948 1206.89 -58.3948C1207.46 -58.252 1222.33 -49.8276 1239.75 -39.5468ZM-79.1939 81.3947L-46.762 100.243V138.224L-46.9036 176.063L-79.3356 194.911L-111.909 213.616L-144.199 194.768L-176.348 176.063L-176.773 138.081L-177.056 100.243L-144.908 81.3947C-127.063 71.1139 -112.476 62.5467 -112.192 62.5467C-111.909 62.5467 -97.1802 71.1139 -79.1939 81.3947ZM59.456 81.3947L92.0296 100.385V138.224L91.888 176.063L59.3144 194.911L26.8825 213.616L-5.4078 194.768L-37.5564 176.063L-37.9813 138.224L-38.2646 100.385L-6.11591 81.5374C11.7287 71.1139 26.316 62.6894 26.5992 62.6894C26.7409 62.5466 41.6114 71.1139 59.456 81.3947ZM198.248 81.3947L230.821 100.385V138.224L230.68 176.063L198.106 194.911L165.674 213.616L133.384 194.768L101.235 176.063L100.81 138.224L100.527 100.385L132.676 81.5374C150.52 71.1139 165.108 62.6894 165.391 62.6894C165.532 62.5466 180.403 71.1139 198.248 81.3947ZM337.039 81.3947L369.613 100.385V138.224L369.471 176.063L336.898 194.911L304.466 213.616L272.175 194.768L240.027 176.063L239.602 138.224L239.319 100.385L271.467 81.5374C289.312 71.1139 303.899 62.6894 304.182 62.6894C304.324 62.5466 319.195 71.1139 337.039 81.3947ZM475.831 81.3947L508.404 100.385L508.121 138.224L507.696 176.063L475.548 194.768L443.257 213.616L411.109 194.768L378.818 176.063L378.393 138.224L378.11 100.385L410.259 81.5374C428.104 71.1139 442.691 62.6894 442.974 62.6894C443.116 62.5466 457.986 71.1139 475.831 81.3947ZM614.622 81.3947L647.196 100.385L646.913 138.224L646.488 176.063L614.339 194.768L582.049 213.616L549.9 194.768L517.61 176.063L517.185 138.224L516.902 100.385L549.051 81.5374C566.895 71.1139 581.482 62.6894 581.766 62.6894C581.907 62.5466 596.778 71.1139 614.622 81.3947ZM753.414 81.3947L785.988 100.385L785.704 138.224L785.279 176.063L753.131 194.768L720.84 213.616L688.692 194.768L656.402 176.063L655.977 138.224L655.693 100.385L687.842 81.5374C705.687 71.1139 720.274 62.6894 720.557 62.6894C720.699 62.5466 735.569 71.1139 753.414 81.3947ZM892.206 81.3947L924.779 100.385L924.496 138.224L924.071 176.063L891.922 194.768L859.632 213.616L827.2 194.911L794.627 176.063L794.485 138.224V100.385L826.775 81.5374C844.478 71.1139 859.066 62.6894 859.349 62.6894C859.491 62.5466 874.361 71.1139 892.206 81.3947ZM1031 81.3947L1063.57 100.385L1063.29 138.224L1062.86 176.063L1030.71 194.768L998.424 213.616L965.992 194.911L933.418 176.063L933.277 138.224V100.385L965.567 81.5374C983.27 71.1139 997.857 62.6894 998.14 62.6894C998.282 62.5466 1013.15 71.1139 1031 81.3947ZM1169.79 81.3947L1202.36 100.385L1202.08 138.224L1201.65 176.063L1169.51 194.768L1137.22 213.616L1104.78 194.911L1072.21 176.063L1072.07 138.224V100.385L1104.36 81.5374C1122.06 71.1139 1136.65 62.6894 1136.93 62.6894C1137.07 62.5466 1151.94 71.1139 1169.79 81.3947ZM1308.86 81.3947L1341.15 100.243L1340.87 138.081L1340.45 176.063L1308.3 194.768L1276.01 213.616L1243.43 194.911L1211 176.063L1210.86 138.224V100.243L1243.15 81.5374C1260.85 71.1139 1275.58 62.6895 1275.87 62.5467C1276.15 62.5467 1291.02 70.9712 1308.86 81.3947ZM-147.032 203.478L-116.158 221.47L-116.441 259.309L-116.866 297.29L-148.023 315.424C-165.16 325.562 -180.172 333.701 -181.305 333.701C-182.438 333.701 -197.45 325.419 -214.587 315.424L-245.744 297.147L-246.169 259.166L-246.452 221.327L-214.303 202.622C-196.459 192.341 -181.163 184.202 -180.03 184.63C-178.897 185.059 -164.168 193.483 -147.032 203.478ZM-9.65651 202.622L22.6338 221.47L22.3506 259.309L21.9257 297.29L-9.23163 315.424C-26.3681 325.562 -41.3803 333.701 -42.5133 333.701C-43.6463 333.701 -58.6584 325.419 -75.795 315.424L-106.952 297.147L-107.377 259.309L-107.66 221.47L-75.5117 202.764C-57.6671 192.341 -42.9382 183.916 -42.6549 183.916C-42.3717 183.916 -27.5011 192.341 -9.65651 202.622ZM129.135 202.622L161.425 221.47L161.142 259.309L160.717 297.29L129.56 315.424C112.423 325.562 97.4113 333.701 96.2783 333.701C95.1453 333.701 80.1332 325.419 62.9966 315.424L31.8393 297.147L31.4145 259.309L31.1312 221.47L63.2799 202.764C81.1245 192.341 95.8534 183.916 96.1367 183.916C96.4199 183.916 111.29 192.341 129.135 202.622ZM267.927 202.622L300.217 221.47L299.934 259.309L299.509 297.29L268.352 315.424C251.215 325.562 236.203 333.701 235.07 333.701C233.937 333.701 218.925 325.419 201.788 315.424L170.631 297.147L170.206 259.309L169.923 221.47L202.071 202.764C219.916 192.341 234.645 183.916 234.928 183.916C235.212 183.916 250.082 192.341 267.927 202.622ZM406.718 202.622L439.009 221.47L438.725 259.309L438.3 297.147L407.143 315.424C390.007 325.419 374.995 333.701 373.862 333.701C372.729 333.701 357.716 325.419 340.58 315.424L309.423 297.147L308.998 259.309L308.714 221.47L340.863 202.764C358.708 192.341 373.437 183.916 373.72 183.916C374.003 183.916 388.874 192.341 406.718 202.622ZM545.51 202.622L577.8 221.47L577.517 259.309L577.092 297.147L545.935 315.424C528.798 325.419 513.786 333.701 512.653 333.701C511.52 333.701 496.508 325.419 479.371 315.424L448.214 297.147L447.789 259.309L447.506 221.47L479.655 202.764C497.499 192.341 512.228 183.916 512.511 183.916C512.795 183.916 527.665 192.341 545.51 202.622ZM684.302 202.622L716.592 221.47L716.308 259.309L715.884 297.147L684.726 315.424C667.59 325.419 652.578 333.701 651.445 333.701C650.312 333.701 635.3 325.419 618.163 315.424L587.006 297.147L586.581 259.309L586.298 221.47L618.446 202.764C636.291 192.341 651.02 183.916 651.303 183.916C651.586 183.916 666.457 192.341 684.302 202.622ZM823.093 202.622L855.383 221.47L855.1 259.309L854.675 297.147L823.518 315.424C806.381 325.419 791.369 333.701 790.236 333.701C789.103 333.701 774.091 325.419 756.955 315.424L725.797 297.147L725.372 259.309L725.089 221.47L757.238 202.764C775.083 192.341 789.811 183.916 790.095 183.916C790.378 183.916 805.248 192.341 823.093 202.622ZM961.885 202.622L994.175 221.47L993.892 259.309L993.467 297.147L962.31 315.424C945.173 325.419 930.161 333.701 929.028 333.701C927.895 333.701 912.883 325.562 895.746 315.424L864.589 297.29L864.164 259.309L863.881 221.47L896.029 202.764C913.874 192.341 928.603 183.916 928.886 183.916C929.169 183.916 944.04 192.341 961.885 202.622ZM1100.68 202.622L1132.97 221.47L1132.68 259.309L1132.26 297.147L1101.1 315.424C1083.96 325.419 1068.95 333.701 1067.82 333.701C1066.69 333.701 1051.67 325.562 1034.54 315.424L1003.38 297.29L1002.96 259.309L1002.67 221.47L1034.82 202.764C1052.67 192.341 1067.39 183.916 1067.68 183.916C1067.96 183.916 1082.83 192.341 1100.68 202.622ZM1239.47 202.622L1271.76 221.47L1271.47 259.309L1271.05 297.147L1239.89 315.424C1222.76 325.419 1207.74 333.701 1206.61 333.701C1205.48 333.701 1190.47 325.562 1173.33 315.424L1142.17 297.29L1141.75 259.309L1141.46 221.47L1173.61 202.764C1191.46 192.341 1206.19 183.916 1206.47 183.916C1206.75 183.916 1221.62 192.341 1239.47 202.622ZM1379.68 203.478L1410.55 221.327L1410.27 259.166L1409.84 297.147L1378.68 315.424C1361.55 325.419 1346.54 333.701 1345.4 333.701C1344.27 333.701 1329.26 325.562 1312.12 315.424L1280.96 297.29L1280.54 259.309L1280.26 221.47L1312.4 202.622C1330.67 192.055 1345.54 184.202 1346.82 184.773C1347.95 185.202 1362.82 193.626 1379.68 203.478ZM-217.844 323.706L-186.262 342.268V380.25V418.232L-218.127 436.794C-235.547 447.075 -250.842 455.071 -252.117 454.785C-253.25 454.357 -267.979 446.075 -284.69 436.223L-315.14 418.374V380.25V342.126L-283.982 323.849C-266.846 313.711 -252.117 305.429 -251.126 305.429C-250.276 305.286 -235.264 313.568 -217.844 323.706ZM-79.0523 323.706L-47.4701 342.268V380.25V418.232L-79.0523 436.794C-96.4721 446.932 -111.201 455.214 -111.767 455.214C-112.476 455.214 -127.346 446.789 -144.908 436.509L-177.056 417.803V380.25V342.697L-145.474 324.134C-128.196 313.854 -113.325 305.572 -112.334 305.429C-111.484 305.286 -96.4721 313.568 -79.0523 323.706ZM59.7393 323.706L91.3215 342.268V380.25V418.232L59.7393 436.794C42.3195 446.932 27.5906 455.214 27.0241 455.214C26.316 455.214 11.4455 446.789 -6.11591 436.509L-38.2646 417.803V380.25V342.697L-6.68237 324.134C10.5958 313.854 25.4663 305.572 26.4577 305.429C27.3074 305.286 42.3195 313.568 59.7393 323.706ZM198.531 323.706L230.113 342.268V380.25V418.232L198.531 436.794C181.111 446.932 166.382 455.214 165.816 455.214C165.108 455.214 150.237 446.789 132.676 436.509L100.527 417.803V380.25V342.697L132.109 324.134C149.387 313.854 164.258 305.572 165.249 305.429C166.099 305.286 181.111 313.568 198.531 323.706ZM337.322 323.706L368.905 342.268V380.25V418.232L337.322 436.794C319.903 446.932 305.174 455.214 304.607 455.214C303.899 455.214 289.029 446.789 271.467 436.509L239.319 417.803V380.25V342.697L270.901 324.134C288.179 313.854 303.049 305.572 304.041 305.429C304.891 305.286 319.903 313.568 337.322 323.706ZM476.114 323.706L507.696 342.268V380.25V418.232L476.114 436.794C458.694 446.932 443.824 455.214 443.257 455.214C442.691 455.214 427.82 446.932 410.4 436.794L378.818 418.232V380.25V342.268L409.976 323.849C427.112 313.854 441.841 305.429 442.832 305.429C443.682 305.286 458.694 313.568 476.114 323.706ZM614.906 323.706L646.488 342.268V380.25V418.232L614.906 436.794C597.486 446.932 582.615 455.214 582.049 455.214C581.482 455.214 566.612 446.932 549.192 436.794L517.61 418.232V380.25V342.268L548.767 323.849C565.904 313.854 580.633 305.429 581.624 305.429C582.474 305.286 597.486 313.568 614.906 323.706ZM753.697 323.706L785.279 342.268V380.25V418.232L753.697 436.794C736.278 446.932 721.407 455.214 720.84 455.214C720.274 455.214 705.403 446.932 687.984 436.794L656.402 418.232V380.25V342.268L687.559 323.849C704.695 313.854 719.424 305.429 720.416 305.429C721.265 305.286 736.278 313.568 753.697 323.706ZM892.631 323.992L924.779 342.697V380.25V417.803L892.631 436.509C875.069 446.789 860.199 455.214 859.49 455.214C858.924 455.214 844.195 446.932 826.775 436.794L795.193 418.232V380.25V342.268L826.35 323.849C843.487 313.854 858.216 305.429 859.066 305.429C859.915 305.286 875.069 313.711 892.631 323.992ZM1031.42 323.992L1063.57 342.697V380.25V417.803L1031.42 436.509C1013.86 446.789 998.99 455.214 998.282 455.214C997.716 455.214 982.987 446.932 965.567 436.794L933.985 418.232V380.25V342.268L965.142 323.849C982.279 313.854 997.007 305.429 997.857 305.429C998.707 305.286 1013.86 313.711 1031.42 323.992ZM1170.21 323.992L1202.36 342.697V380.25V417.803L1170.21 436.509C1152.65 446.789 1137.78 455.214 1137.07 455.214C1136.51 455.214 1121.78 446.932 1104.36 436.794L1072.78 418.232V380.25V342.268L1103.93 323.849C1121.07 313.854 1135.8 305.429 1136.65 305.429C1137.5 305.286 1152.65 313.711 1170.21 323.992ZM1309.01 323.992L1341.15 342.697V380.25V417.803L1309.01 436.509C1291.44 446.789 1276.57 455.214 1275.87 455.214C1275.3 455.214 1260.57 446.932 1243.15 436.794L1211.57 418.232V380.25V342.268L1242.73 323.849C1259.86 313.854 1274.59 305.429 1275.44 305.429C1276.29 305.286 1291.44 313.711 1309.01 323.992ZM1447.8 323.706L1479.24 342.126V380.25V418.374L1448.79 436.223C1432.08 446.075 1417.35 454.357 1416.21 454.785C1414.94 455.071 1399.64 447.075 1382.22 436.794L1350.36 418.232V380.25V342.268L1381.52 323.849C1398.65 313.854 1413.52 305.429 1414.52 305.429C1415.37 305.286 1430.38 313.568 1447.8 323.706ZM-148.023 445.076L-116.866 463.21L-116.441 501.191L-116.158 539.03L-147.598 557.45C-165.018 567.445 -180.172 575.727 -181.305 575.727C-182.438 575.727 -197.592 567.588 -215.011 557.45L-246.452 539.173L-246.169 501.334L-245.744 463.353L-214.587 445.076C-197.45 435.081 -182.438 426.799 -181.305 426.799C-180.172 426.799 -165.16 434.938 -148.023 445.076ZM-9.23163 445.076L21.9257 463.21L22.3506 501.191L22.6338 539.03L-9.93974 557.878L-42.5133 576.869L-75.0868 557.878L-107.66 539.03L-107.377 501.191L-106.952 463.353L-75.795 445.076C-58.6584 435.081 -43.6463 426.799 -42.5133 426.799C-41.3803 426.799 -26.3681 434.938 -9.23163 445.076ZM129.56 445.076L160.717 463.21L161.142 501.191L161.425 539.03L128.852 557.878L96.2783 576.869L63.7048 557.878L31.1312 539.03L31.4145 501.191L31.8393 463.353L62.9966 445.076C80.1332 435.081 95.1453 426.799 96.2783 426.799C97.4113 426.799 112.423 434.938 129.56 445.076ZM268.352 445.076L299.509 463.21L299.934 501.191L300.217 539.03L267.643 557.878L235.07 576.869L202.496 557.878L169.923 539.03L170.206 501.191L170.631 463.353L201.788 445.076C218.925 435.081 233.937 426.799 235.07 426.799C236.203 426.799 251.215 434.938 268.352 445.076ZM407.143 445.076L438.3 463.353L438.725 501.191L439.009 539.03L406.435 557.878L373.862 576.869L341.288 557.878L308.714 539.03L308.998 501.191L309.423 463.353L340.58 445.076C357.716 435.081 372.729 426.799 373.862 426.799C374.995 426.799 390.007 435.081 407.143 445.076ZM545.935 445.076L577.092 463.353L577.517 501.191L577.8 539.03L545.227 557.878L512.653 576.869L480.08 557.878L447.506 539.03L447.789 501.191L448.214 463.353L479.371 445.076C496.508 435.081 511.52 426.799 512.653 426.799C513.786 426.799 528.798 435.081 545.935 445.076ZM684.726 445.076L715.884 463.353L716.308 501.191L716.592 539.03L684.018 557.878L651.445 576.869L618.871 557.878L586.298 539.03L586.581 501.191L587.006 463.353L618.163 445.076C635.3 435.081 650.312 426.799 651.445 426.799C652.578 426.799 667.59 435.081 684.726 445.076ZM823.518 445.076L854.675 463.353L855.1 501.191L855.383 539.03L822.81 557.878L790.236 576.869L757.663 557.878L725.089 539.03L725.372 501.191L725.797 463.353L756.955 445.076C774.091 435.081 789.103 426.799 790.236 426.799C791.369 426.799 806.381 435.081 823.518 445.076ZM962.31 445.076L993.467 463.353L993.892 501.191L994.175 539.03L961.601 557.878L929.028 576.869L896.454 557.878L863.881 539.03L864.164 501.191L864.589 463.21L895.746 445.076C912.883 434.938 927.895 426.799 929.028 426.799C930.161 426.799 945.173 435.081 962.31 445.076ZM1101.1 445.076L1132.26 463.353L1132.68 501.191L1132.97 539.03L1100.39 557.878L1067.82 576.869L1035.25 557.878L1002.67 539.03L1002.96 501.191L1003.38 463.21L1034.54 445.076C1051.67 434.938 1066.69 426.799 1067.82 426.799C1068.95 426.799 1083.96 435.081 1101.1 445.076ZM1239.89 445.076L1271.05 463.353L1271.47 501.191L1271.76 539.03L1239.18 557.878L1206.61 576.869L1174.04 557.878L1141.46 539.03L1141.75 501.191L1142.17 463.21L1173.33 445.076C1190.47 434.938 1205.48 426.799 1206.61 426.799C1207.74 426.799 1222.76 435.081 1239.89 445.076ZM1378.68 445.076L1409.84 463.353L1410.27 501.334L1410.55 539.173L1379.11 557.45C1361.69 567.588 1346.54 575.727 1345.4 575.727C1344.27 575.727 1329.12 567.445 1311.7 557.45L1280.26 539.03L1280.54 501.191L1280.96 463.21L1312.12 445.076C1329.26 434.938 1344.27 426.799 1345.4 426.799C1346.54 426.799 1361.55 435.081 1378.68 445.076ZM-78.9107 565.874L-46.9036 584.437L-46.762 622.276V660.257L-79.3356 679.105L-112.051 698.096L-144.624 679.248L-177.056 660.257L-176.773 622.419L-176.348 584.437L-144.483 565.732C-126.921 555.308 -112.334 547.026 -111.909 547.169C-111.343 547.169 -96.6137 555.594 -78.9107 565.874ZM59.881 565.874L91.888 584.437L92.0296 622.276V660.115L59.456 679.105L26.8825 697.953L-5.69103 679.105L-38.2646 660.115L-37.9813 622.276L-37.5564 584.437L-5.69103 565.732C11.8704 555.308 26.4576 547.026 26.8825 547.169C27.3074 547.169 42.1779 555.594 59.881 565.874ZM198.673 565.874L230.68 584.437L230.821 622.276V660.115L198.248 679.105L165.674 697.953L133.101 679.105L100.527 660.115L100.81 622.276L101.235 584.437L133.101 565.732C150.662 555.308 165.249 547.026 165.674 547.169C166.099 547.169 180.97 555.594 198.673 565.874ZM337.464 565.874L369.471 584.437L369.613 622.276V660.115L337.039 679.105L304.466 697.953L271.892 679.105L239.319 660.115L239.602 622.276L240.027 584.437L271.892 565.732C289.454 555.308 304.041 547.026 304.466 547.169C304.891 547.169 319.761 555.594 337.464 565.874ZM475.264 565.589L507.696 584.437L508.121 622.276L508.404 660.115L475.831 679.105L443.257 697.953L410.684 679.105L378.11 660.115L378.393 622.276L378.818 584.437L410.684 565.732C428.245 555.308 442.549 546.884 442.691 546.741C442.832 546.598 457.42 555.165 475.264 565.589ZM614.056 565.589L646.488 584.437L646.913 622.276L647.196 660.115L614.622 679.105L582.049 697.953L549.475 679.105L516.902 660.115L517.185 622.276L517.61 584.437L549.475 565.732C567.037 555.308 581.341 546.884 581.482 546.741C581.624 546.598 596.211 555.165 614.056 565.589ZM752.848 565.589L785.279 584.437L785.704 622.276L785.988 660.115L753.414 679.105L720.84 697.953L688.267 679.105L655.693 660.115L655.977 622.276L656.402 584.437L688.267 565.732C705.828 555.308 720.132 546.884 720.274 546.741C720.416 546.598 735.003 555.165 752.848 565.589ZM891.639 565.589L924.071 584.437L924.496 622.276L924.779 660.115L892.206 679.105L859.632 697.953L827.059 679.105L794.485 660.115V622.276L794.627 584.437L826.775 565.732C844.478 555.308 858.924 546.884 859.066 546.741C859.207 546.598 873.795 555.165 891.639 565.589ZM1030.43 565.589L1062.86 584.437L1063.29 622.276L1063.57 660.115L1031 679.105L998.424 697.953L965.85 679.105L933.277 660.115V622.276L933.418 584.437L965.567 565.732C983.27 555.308 997.716 546.884 997.857 546.741C997.999 546.598 1012.59 555.165 1030.43 565.589ZM1169.22 565.589L1201.65 584.437L1202.08 622.276L1202.36 660.115L1169.79 679.105L1137.22 697.953L1104.64 679.105L1072.07 660.115V622.276L1072.21 584.437L1104.36 565.732C1122.06 555.308 1136.51 546.884 1136.65 546.741C1136.79 546.598 1151.38 555.165 1169.22 565.589ZM1308.01 565.589L1340.45 584.437L1340.87 622.419L1341.15 660.257L1308.72 679.248L1276.15 698.096L1243.43 679.105L1210.86 660.257V622.276L1211 584.437L1243.15 565.732C1260.85 555.308 1275.3 546.884 1275.44 546.741C1275.58 546.598 1290.17 555.165 1308.01 565.589ZM-9.37325 687.244L22.6338 705.807V743.646V781.484L-10.0814 800.332L-42.6549 819.323L-75.2284 800.332L-107.66 781.484V743.646V705.807L-75.3701 686.959C-57.6671 676.678 -42.7965 668.253 -42.23 668.396C-41.8052 668.539 -26.9346 676.964 -9.37325 687.244ZM129.418 687.244L161.425 705.807V743.646V781.484L128.852 800.332L96.2783 819.18L63.7048 800.332L31.2729 781.484L31.1312 743.646V705.807L63.4216 686.959C81.1246 676.678 95.9951 668.253 96.5616 668.396C96.9865 668.539 111.857 676.964 129.418 687.244ZM268.21 687.244L300.217 705.807V743.646V781.484L267.643 800.332L235.07 819.18L202.496 800.332L170.064 781.484L169.923 743.646V705.807L202.213 686.959C219.916 676.678 234.787 668.253 235.353 668.396C235.778 668.539 250.649 676.964 268.21 687.244ZM407.002 687.244L439.009 705.807V743.646V781.484L406.435 800.332L373.862 819.038L341.288 800.332L308.856 781.484L308.714 743.646V705.807L341.005 686.959C358.708 676.678 373.578 668.253 374.145 668.396C374.57 668.539 389.44 676.964 407.002 687.244ZM545.793 687.244L577.8 705.807V743.646V781.484L545.227 800.332L512.653 819.038L480.08 800.332L447.506 781.484V743.646V705.807L479.796 686.959C497.499 676.678 512.37 668.253 512.936 668.396C513.361 668.539 528.232 676.964 545.793 687.244ZM684.585 687.244L716.592 705.807V743.646V781.484L684.018 800.332L651.445 819.038L618.871 800.332L586.298 781.484V743.646V705.807L618.588 686.959C636.291 676.678 651.161 668.253 651.728 668.396C652.153 668.539 667.023 676.964 684.585 687.244ZM823.376 687.244L855.383 705.807V743.646L855.242 781.484L822.81 800.332L790.236 819.038L757.663 800.332L725.089 781.484V743.646V705.807L757.379 686.959C775.083 676.678 789.953 668.253 790.52 668.396C790.944 668.539 805.815 676.964 823.376 687.244ZM962.168 687.244L994.175 705.807V743.646L994.033 781.484L961.601 800.332L929.028 819.18L896.454 800.332L863.881 781.484V743.646V705.807L896.171 686.959C913.874 676.678 928.745 668.253 929.169 668.396C929.736 668.539 944.465 676.964 962.168 687.244ZM1100.96 687.244L1132.97 705.807V743.646L1132.82 781.484L1100.39 800.332L1067.82 819.18L1035.25 800.332L1002.67 781.484V743.646V705.807L1034.96 686.959C1052.67 676.678 1067.54 668.253 1067.96 668.396C1068.53 668.539 1083.26 676.964 1100.96 687.244ZM1239.75 687.244L1271.76 705.807V743.646V781.484L1239.33 800.332L1206.75 819.323L1174.18 800.332L1141.46 781.484V743.646V705.807L1173.75 686.959C1191.46 676.678 1206.33 668.253 1206.75 668.396C1207.32 668.539 1222.05 676.964 1239.75 687.244ZM59.7393 808.186L92.0296 827.034L91.7464 864.873L91.3215 902.711L59.0312 921.559L26.7409 940.407L-5.69103 921.559L-38.1229 902.854L-38.2646 865.015V827.034L-5.97426 808.329C11.7288 797.905 26.4576 789.338 26.7409 789.338C27.0241 789.338 41.8947 797.762 59.7393 808.186ZM198.531 808.186L230.821 827.034L230.538 864.873L230.113 902.711L198.956 920.988C181.819 930.983 166.807 939.265 165.674 939.265C164.541 939.122 149.529 930.983 132.392 920.988L101.235 902.711L100.81 864.873L100.527 827.177L132.676 808.329C150.52 797.905 165.249 789.338 165.532 789.338C165.816 789.338 180.686 797.762 198.531 808.186ZM337.322 808.186L369.613 827.034L369.33 864.873L368.905 902.711L337.747 920.988C320.611 930.983 305.599 939.265 304.466 939.265C303.333 939.122 288.321 930.983 271.184 920.988L240.027 902.711L239.602 864.873L239.319 827.177L271.467 808.329C289.312 797.905 304.041 789.338 304.324 789.338C304.607 789.338 319.478 797.762 337.322 808.186ZM475.973 808.186L508.404 827.034L508.121 864.873L507.696 902.711L476.539 920.988C459.402 930.983 444.39 939.122 443.257 939.122C442.124 939.122 427.112 930.983 409.976 920.988L378.818 902.711L378.393 864.873L378.11 827.034L410.259 808.186C428.104 797.905 442.832 789.481 442.974 789.338C443.257 789.338 458.128 797.762 475.973 808.186ZM614.764 808.186L647.196 827.034L646.913 864.873L646.488 902.711L615.331 920.988C598.194 930.983 583.182 939.122 582.049 939.122C580.916 939.122 565.904 930.983 548.767 920.988L517.61 902.711L517.185 864.873L516.902 827.034L549.051 808.186C566.895 797.905 581.624 789.481 581.766 789.338C582.049 789.338 596.919 797.762 614.764 808.186ZM753.556 808.186L785.988 827.034L785.704 864.873L785.279 902.711L754.122 920.988C736.986 930.983 721.973 939.122 720.84 939.122C719.707 939.122 704.695 930.983 687.559 920.988L656.402 902.711L655.977 864.873L655.693 827.034L687.842 808.186C705.687 797.905 720.416 789.481 720.557 789.338C720.84 789.338 735.711 797.762 753.556 808.186ZM892.347 808.186L924.779 827.177L924.496 864.873L924.071 902.711L892.914 920.988C875.777 930.983 860.765 939.122 859.632 939.122C858.499 939.122 843.487 930.983 826.35 920.988L795.193 902.711L794.768 864.873L794.485 827.034L826.634 808.186C844.478 797.905 859.207 789.338 859.49 789.338C859.774 789.338 874.503 797.905 892.347 808.186ZM1031.14 808.186L1063.57 827.177L1063.29 864.873L1062.86 902.711L1031.71 920.988C1014.57 930.983 999.557 939.122 998.424 939.265C997.291 939.265 982.279 930.983 965.142 920.988L933.985 902.711L933.56 864.873L933.277 827.034L965.425 808.186C983.27 797.905 997.999 789.338 998.282 789.338C998.565 789.338 1013.29 797.905 1031.14 808.186ZM1169.93 808.186L1202.36 827.034V865.015L1202.22 902.854L1169.79 921.559L1137.36 940.407L1105.07 921.559L1072.78 902.711L1072.35 864.873L1072.07 827.034L1104.22 808.186C1122.06 797.905 1136.79 789.338 1137.07 789.338C1137.36 789.338 1152.09 797.762 1169.93 808.186ZM130.551 930.27L161.425 948.118L161.142 985.957L160.717 1023.8L129.277 1042.22C111.857 1052.35 96.8448 1060.64 95.9951 1060.49C95.0037 1060.49 80.1332 1052.35 62.9966 1042.22L31.8393 1024.08L31.4145 986.1L31.1312 948.118L63.2799 929.413C81.691 918.704 96.4199 910.993 97.6945 911.564C98.8275 911.993 113.698 920.417 130.551 930.27ZM269.343 930.27L300.217 948.118L299.934 985.957L299.509 1023.8L269.06 1041.64C252.348 1051.5 237.619 1059.78 236.345 1060.21C235.212 1060.49 219.916 1052.5 202.355 1042.36L170.631 1023.8L170.206 985.957L169.923 948.118L202.071 929.413C220.483 918.704 235.212 910.993 236.486 911.564C237.619 911.993 252.49 920.417 269.343 930.27ZM408.135 930.27L439.009 948.118L438.725 985.957L438.3 1023.8L406.718 1042.22C389.299 1052.35 374.57 1060.64 373.862 1060.64C373.153 1060.64 358.425 1052.35 341.005 1042.22L309.423 1023.8L308.998 985.957L308.714 948.118L340.863 929.413C359.274 918.704 374.003 910.993 375.278 911.564C376.411 911.993 391.281 920.417 408.135 930.27ZM546.926 930.27L577.8 948.118L577.517 985.957L577.092 1023.8L545.51 1042.22C528.09 1052.35 513.361 1060.64 512.653 1060.64C511.945 1060.64 497.216 1052.35 479.796 1042.22L448.214 1023.8L447.789 985.957L447.506 948.118L479.655 929.413C498.066 918.704 512.795 910.993 514.069 911.564C515.202 911.993 530.073 920.417 546.926 930.27ZM685.718 930.27L716.592 948.118L716.308 985.957L715.884 1023.8L685.434 1041.64C668.723 1051.5 653.994 1059.78 652.719 1060.21C651.586 1060.49 636.291 1052.5 618.73 1042.36L587.006 1023.8L586.581 985.957L586.298 948.118L618.446 929.413C636.857 918.704 651.586 910.993 652.861 911.564C653.994 911.993 668.864 920.417 685.718 930.27ZM824.509 930.27L855.383 948.118L855.1 985.957L854.675 1023.8L823.093 1042.22C805.673 1052.35 790.944 1060.64 790.236 1060.64C789.528 1060.64 774.799 1052.35 757.379 1042.22L725.797 1023.8L725.372 985.957L725.089 948.118L757.238 929.413C775.649 918.704 790.378 910.993 791.653 911.564C792.786 911.993 807.656 920.417 824.509 930.27ZM963.301 930.27L994.175 948.118L993.892 985.957L993.467 1023.8L961.743 1042.36C944.182 1052.5 928.886 1060.49 927.753 1060.21C926.479 1059.78 911.75 1051.5 895.038 1041.64L864.589 1023.8L864.164 985.957L863.881 948.118L896.029 929.413C914.441 918.704 929.17 910.993 930.444 911.564C931.577 911.993 946.448 920.417 963.301 930.27ZM1102.09 930.27L1132.97 948.118L1132.68 986.1L1132.26 1024.08L1101.1 1042.22C1083.96 1052.35 1069.09 1060.49 1068.1 1060.49C1067.25 1060.64 1052.24 1052.35 1034.82 1042.22L1003.38 1023.8L1002.96 985.957L1002.67 948.118L1034.82 929.413C1053.23 918.704 1067.96 910.993 1069.24 911.564C1070.37 911.993 1085.24 920.417 1102.09 930.27ZM198.531 1050.5L230.113 1068.92V1107.04V1145.17L198.531 1163.59C181.111 1173.72 166.241 1182 165.674 1182C164.966 1182 150.237 1173.72 132.817 1163.59L101.235 1145.02V1107.04V1068.92L132.392 1050.64C149.529 1040.5 164.258 1032.22 165.249 1032.22C166.099 1032.08 181.111 1040.36 198.531 1050.5ZM337.322 1050.5L368.905 1068.92V1107.04V1145.17L337.322 1163.59C319.903 1173.72 305.032 1182 304.466 1182C303.758 1182 289.029 1173.72 271.609 1163.59L240.027 1145.02V1107.04V1068.92L271.184 1050.64C288.321 1040.5 303.049 1032.22 304.041 1032.22C304.891 1032.08 319.903 1040.36 337.322 1050.5ZM476.114 1050.5L507.696 1068.92V1107.04V1145.02L476.114 1163.59C458.694 1173.72 443.965 1182 443.257 1182C442.549 1182 427.82 1173.72 410.4 1163.59L378.818 1145.02V1107.04V1068.92L409.976 1050.64C427.112 1040.5 441.841 1032.22 442.832 1032.22C443.682 1032.08 458.694 1040.36 476.114 1050.5ZM614.906 1050.5L646.488 1068.92V1107.04V1145.02L614.906 1163.59C597.486 1173.72 582.757 1182 582.049 1182C581.341 1182 566.612 1173.72 549.192 1163.59L517.61 1145.02V1107.04V1068.92L548.767 1050.64C565.904 1040.5 580.633 1032.22 581.624 1032.22C582.474 1032.08 597.486 1040.36 614.906 1050.5ZM753.697 1050.5L785.279 1068.92V1107.04V1145.02L753.697 1163.59C736.278 1173.72 721.549 1182 720.84 1182C720.132 1182 705.403 1173.72 687.984 1163.59L656.402 1145.02V1107.04V1068.92L687.559 1050.64C704.695 1040.5 719.424 1032.22 720.416 1032.22C721.265 1032.08 736.278 1040.36 753.697 1050.5ZM892.489 1050.5L924.071 1068.92V1107.04V1145.02L892.489 1163.59C875.069 1173.72 860.34 1182 859.632 1182C859.066 1182 844.195 1173.72 826.775 1163.59L795.193 1145.17V1107.04V1068.92L826.35 1050.64C843.487 1040.5 858.216 1032.22 859.207 1032.22C860.057 1032.08 875.069 1040.36 892.489 1050.5ZM1031.28 1050.5L1062.86 1068.92V1107.04V1145.02L1031.28 1163.59C1013.86 1173.72 999.132 1182 998.424 1182C997.857 1182 982.987 1173.72 965.567 1163.59L933.985 1145.17V1107.04V1068.92L965.142 1050.64C982.279 1040.5 997.007 1032.22 997.999 1032.22C998.848 1032.08 1013.86 1040.36 1031.28 1050.5Z" stroke="white" stroke-width="12.75"/>
<path d="M582.455 307.331C584.117 308.264 586.296 309.499 588.886 310.979C595.132 314.548 603.699 319.484 613.062 324.878L643.968 342.897L643.699 378.844V378.845L643.294 414.846L612.742 432.623L612.734 432.628L582.998 449.984H581.255L551.663 432.634L551.648 432.625L551.633 432.617L520.941 414.839L520.538 378.821L520.268 342.886L550.762 325.008L557.593 321.022C564.218 317.162 570.156 313.716 574.796 311.041C577.41 309.534 579.604 308.279 581.273 307.331H582.455Z" fill="black"/>
<path d="M374.43 184.081C376.092 185.014 378.271 186.249 380.861 187.729C387.107 191.298 395.674 196.234 405.037 201.628L435.845 219.59V232.802L435.674 255.594V255.595L435.27 291.596L404.717 309.373L404.709 309.378L374.973 326.734H373.23L343.638 309.384L343.623 309.375L343.608 309.367L312.916 291.589L312.513 255.571L312.243 219.636L342.737 201.758L349.568 197.772C356.193 193.912 362.131 190.466 366.771 187.791C369.385 186.284 371.579 185.029 373.248 184.081H374.43Z" fill="black"/>
<path d="M647.794 673.5C649.437 674.421 651.662 675.681 654.346 677.215C660.371 680.658 668.635 685.418 677.667 690.622L707.414 707.966L707.156 742.521L706.767 777.179L677.376 794.278L677.368 794.283L648.327 811.234H647.529L618.628 794.289L618.613 794.281L618.599 794.272L589.074 777.171L588.687 742.521L588.427 707.956L617.759 690.759L624.354 686.911C630.749 683.184 636.483 679.858 640.963 677.274C643.667 675.715 645.905 674.434 647.553 673.5H647.794Z" fill="black"/>
<path d="M582.687 796.749C584.35 797.683 586.528 798.917 589.119 800.397C595.364 803.966 603.932 808.902 613.294 814.296L644.201 832.315L643.931 868.263V868.264L643.527 904.265L612.974 922.041L612.966 922.046L583.23 939.402H581.488L551.895 922.052L551.88 922.043L551.866 922.035L521.173 904.257L520.77 868.239L520.5 832.305L550.995 814.426L557.826 810.44C564.45 806.58 570.388 803.135 575.029 800.459C577.642 798.952 579.836 797.697 581.505 796.749H582.687Z" fill="black"/>
<path d="M303.916 70C305.559 70.9205 307.783 72.1812 310.467 73.7148C316.492 77.1578 324.756 81.9184 333.789 87.1221L363.536 104.466L363.278 139.021L362.888 173.679L333.498 190.778L333.49 190.783L304.449 207.734H303.651L274.75 190.789L274.735 190.781L274.72 190.772L245.196 173.671L244.808 139.021L244.548 104.456L273.88 87.2588L280.475 83.4111C286.871 79.6841 292.604 76.3575 297.084 73.7744C299.788 72.2155 302.026 70.9342 303.674 70H303.916Z" fill="black"/>
<path d="M511.94 431.25C513.583 432.171 515.808 433.431 518.492 434.965C524.517 438.408 532.781 443.168 541.813 448.372L571.561 465.716L571.303 500.271L570.913 534.929L541.522 552.028L541.515 552.033L512.474 568.984H511.676L482.774 552.039L482.76 552.031L482.745 552.022L453.221 534.921L452.833 500.271L452.573 465.706L481.905 448.509L488.5 444.661C494.896 440.934 500.629 437.608 505.109 435.024C507.813 433.465 510.051 432.184 511.699 431.25H511.94Z" fill="black"/>
</g>
</g>
<defs>
<filter id="filter0_d_5070_1745" x="138.095" y="119.5" width="748.5" height="825" filterUnits="userSpaceOnUse" color-interpolation-filters="sRGB">
<feFlood flood-opacity="0" result="BackgroundImageFix"/>
<feColorMatrix in="SourceAlpha" type="matrix" values="0 0 0 0 0 0 0 0 0 0 0 0 0 0 0 0 0 0 127 0" result="hardAlpha"/>
<feOffset dy="20"/>
<feGaussianBlur stdDeviation="15"/>
<feComposite in2="hardAlpha" operator="out"/>
<feColorMatrix type="matrix" values="0 0 0 0 0 0 0 0 0 0 0 0 0 0 0 0 0 0 0.6 0"/>
<feBlend mode="normal" in2="BackgroundImageFix" result="effect1_dropShadow_5070_1745"/>
<feBlend mode="normal" in="SourceGraphic" in2="effect1_dropShadow_5070_1745" result="shape"/>
</filter>
<linearGradient id="paint0_linear_5070_1745" x1="480.5" y1="-78" x2="480.5" y2="1150" gradientUnits="userSpaceOnUse">
<stop offset="0.488446" stop-color="#282828"/>
<stop offset="0.991287"/>
</linearGradient>
</defs>
</svg>
