<svg preserveAspectRatio="none" width="100%" height="100%" overflow="visible" style="display: block;" viewBox="0 0 24 27" fill="none" xmlns="http://www.w3.org/2000/svg">
<g id="Menu Bar Icon">
<path id="Outside" d="M21.3911 0.91777C22.2489 0.91777 22.9443 1.61315 22.9443 2.47092V7.01741C22.9443 7.87518 22.2489 8.57056 21.3911 8.57056H16.3193C16.0641 8.57056 15.8845 8.76601 15.8845 8.97465V23.9326C15.8845 24.7904 15.1891 25.4858 14.3313 25.4858H9.53069C8.67289 25.4858 7.97754 24.7904 7.97754 23.9326V8.97598C7.97754 8.76688 7.79741 8.57189 7.54269 8.57189H2.47092C1.61312 8.57189 0.91777 7.87651 0.91777 7.01874V2.47092C0.91777 1.61315 1.61312 0.91777 2.47092 0.91777H21.3911Z" stroke="var(--stroke-0, #09090B)" stroke-width="1.83554"/>
<mask id="mask0_6157_980" style="mask-type:alpha" maskUnits="userSpaceOnUse" x="1" y="1" width="22" height="25">
<path id="Mask" d="M2.47081 1.35808H21.3907C22.0054 1.35811 22.504 1.8567 22.504 2.47136V7.01726C22.504 7.63188 22.0054 8.13051 21.3907 8.13054H16.3185C15.8353 8.13075 15.4437 8.50834 15.4435 8.97429V23.9323C15.4435 24.5469 14.9457 25.0454 14.3312 25.0456H9.53038C8.9157 25.0456 8.4171 24.547 8.4171 23.9323V8.97624C8.4171 8.50858 8.0242 8.13152 7.5421 8.13152H2.47081C1.85625 8.13152 1.35772 7.63369 1.35753 7.01921V2.47136C1.35753 1.85668 1.85613 1.35808 2.47081 1.35808Z" fill="var(--fill-0, white)" stroke="var(--stroke-0, #09090B)" stroke-width="0.0332225"/>
</mask>
<g mask="url(#mask0_6157_980)">
<path id="Grid" d="M-6.79322 -30.8875L-8.54565 -29.861L-8.5595 -27.8707L-8.58028 -25.8874L-10.2426 -24.9237L-11.905 -23.96L-11.9396 -21.9627L-11.9743 -19.9655L-13.6505 -18.9878L-15.3336 -18.0101V-16.0338V-14.0645L-17.0098 -13.0868L-18.693 -12.1091L-18.7138 -10.1188L-18.7276 -8.13554L-20.4107 -7.15786L-22.0869 -6.18018L-22.1077 -4.19686L-22.1285 -2.20662L-23.8186 -1.22895L-25.5087 -0.251237L-25.5295 1.73901L-25.5502 3.72931L-27.2333 4.70697L-28.9096 5.68468V7.77969V9.8747L-27.2265 10.8524L-25.5502 11.8301L-25.5295 13.8204L-25.5087 15.8106L-23.8186 16.7883L-22.1285 17.766L-22.1077 19.7563L-22.0869 21.7396L-20.4107 22.7173L-18.7276 23.6949L-18.7138 25.6782L-18.693 27.6685L-17.0168 28.6462L-15.3336 29.6239V31.5932V33.5695L-13.6505 34.5472L-11.9743 35.5249L-11.9396 37.5221L-11.905 39.5193L-10.2426 40.4833L-8.58028 41.4467L-8.5595 43.43L-8.54565 45.4205L-6.80017 46.4329C-5.84432 46.9914 -5.02697 47.4526 -4.9785 47.4663C-4.93693 47.4805 -4.14042 47.0477 -3.22609 46.5097L-1.54988 45.5389L0.119388 46.5097C1.03372 47.0403 1.80949 47.4805 1.84412 47.4805C1.87874 47.4805 2.65452 47.0403 3.5688 46.5097L5.23811 45.5389L6.90738 46.5097C7.82166 47.0403 8.59743 47.4805 8.63206 47.4805C8.66669 47.4805 9.44246 47.0403 10.3568 46.5097L12.0261 45.5389L13.6954 46.5097C14.6097 47.0403 15.3854 47.4805 15.4201 47.4805C15.4547 47.4805 16.2304 47.0403 17.1447 46.5097L18.814 45.5389L20.4833 46.5097C21.3976 47.0403 22.1734 47.4805 22.208 47.4805C22.2427 47.4805 23.0184 47.0403 23.9327 46.5097L25.602 45.5389L27.2713 46.5097C28.1856 47.0403 28.9614 47.4805 28.996 47.4805C29.0306 47.4805 29.8064 47.0403 30.7207 46.5097L32.39 45.5389L34.0662 46.5097C34.9805 47.0477 35.777 47.4805 35.8186 47.4663C35.8669 47.4526 36.6842 46.9914 37.6403 46.4329L39.3858 45.4205L39.3995 43.43L39.4206 41.4467L41.0829 40.4833L42.7453 39.5193L42.7795 37.5221L42.8143 35.5249L44.4977 34.5472L46.1737 33.5695V31.5932V29.6239L47.8498 28.6462L49.5332 27.6685L49.5537 25.6782L49.5679 23.6949L51.2508 22.7173L52.9269 21.7396L52.9479 19.7563L52.9685 17.766L54.6587 16.7883L56.349 15.8106L56.3695 13.8204L56.3905 11.8301L58.0735 10.8524L59.7495 9.8747V7.77969V5.68468L58.0735 4.70697L56.3905 3.72931L56.3695 1.73901L56.349 -0.251237L54.6587 -1.22895L52.9685 -2.20662L52.9479 -4.19686L52.9269 -6.18018L51.2508 -7.15786L49.5679 -8.13554L49.5537 -10.1188L49.5332 -12.1091L47.8566 -13.0868L46.1737 -14.0645V-16.0338V-18.0101L44.4977 -18.9878L42.8143 -19.9655L42.7795 -21.9627L42.7453 -23.96L41.0829 -24.9237L39.4206 -25.8874L39.3995 -27.8707L39.3858 -29.861L37.6403 -30.8736C36.6842 -31.4323 35.8669 -31.8932 35.8186 -31.9071C35.777 -31.9211 34.9805 -31.4881 34.0662 -30.9504L32.39 -29.9797L30.7207 -30.9504C29.8064 -31.4811 29.0306 -31.9211 28.996 -31.9211C28.9614 -31.9211 28.1856 -31.4811 27.2713 -30.9504L25.602 -29.9797L23.9327 -30.9504C23.0184 -31.4811 22.2427 -31.9211 22.208 -31.9211C22.1734 -31.9211 21.3976 -31.4811 20.4833 -30.9504L18.814 -29.9797L17.1447 -30.9504C16.2304 -31.4811 15.4547 -31.9211 15.4201 -31.9211C15.3854 -31.9211 14.6097 -31.4811 13.6954 -30.9504L12.0261 -29.9797L10.3568 -30.9504C9.44246 -31.4811 8.66669 -31.9211 8.63206 -31.9211C8.59743 -31.9211 7.82166 -31.4811 6.90738 -30.9504L5.23811 -29.9797L3.5688 -30.9504C2.65452 -31.4811 1.87874 -31.9211 1.84412 -31.9211C1.80949 -31.9211 1.03372 -31.4811 0.119388 -30.9504L-1.54988 -29.9797L-3.21915 -30.9504C-4.13348 -31.4811 -4.92309 -31.9211 -4.96466 -31.9141C-5.01313 -31.9141 -5.83737 -31.4462 -6.79322 -30.8875ZM-3.33692 -30.5314L-1.79232 -29.6306V-27.766V-25.9014L-3.33692 -25.0005C-4.18889 -24.5047 -4.90925 -24.0996 -4.94388 -24.0996C-4.97156 -24.0996 -5.69886 -24.5047 -6.55084 -25.0005L-8.09544 -25.9014V-27.766V-29.6236L-6.57162 -30.5244C-5.73349 -31.0202 -5.01313 -31.4253 -4.96466 -31.4253C-4.92309 -31.4323 -4.18889 -31.0272 -3.33692 -30.5314ZM3.45103 -30.5314L4.99568 -29.6306V-27.766V-25.9014L3.45103 -25.0005C2.5991 -24.5047 1.87874 -24.0996 1.84412 -24.0996C1.81639 -24.0996 1.08913 -24.5047 0.237156 -25.0005L-1.30744 -25.9014V-27.766V-29.6236L0.21637 -30.5244C1.0545 -31.0202 1.77481 -31.4253 1.82333 -31.4253C1.8649 -31.4323 2.5991 -31.0272 3.45103 -30.5314ZM10.239 -30.5314L11.7836 -29.6236V-27.766V-25.9014L10.239 -25.0005C9.38705 -24.5047 8.66669 -24.0996 8.63206 -24.0996C8.59743 -24.0996 7.87707 -24.5047 7.0251 -25.0005L5.4805 -25.9014V-27.766V-29.6236L7.00437 -30.5244C7.84245 -31.0202 8.56281 -31.4253 8.61127 -31.4253C8.65285 -31.4323 9.38705 -31.0272 10.239 -30.5314ZM17.027 -30.5314L18.5716 -29.6236V-27.766V-25.9014L17.027 -25.0005C16.175 -24.5047 15.4547 -24.0996 15.4201 -24.0996C15.3854 -24.0996 14.6651 -24.5047 13.8131 -25.0005L12.2685 -25.9014V-27.766V-29.6236L13.7923 -30.5244C14.6304 -31.0202 15.3508 -31.4253 15.3993 -31.4253C15.4408 -31.4323 16.175 -31.0272 17.027 -30.5314ZM23.815 -30.5314L25.3596 -29.6236V-27.766V-25.9014L23.815 -25.0005C22.963 -24.5047 22.2427 -24.0996 22.208 -24.0996C22.1734 -24.0996 21.453 -24.5047 20.6011 -25.0005L19.0565 -25.9014V-27.766V-29.6236L20.5803 -30.5244C21.4184 -31.0202 22.1387 -31.4253 22.1873 -31.4253C22.2288 -31.4323 22.963 -31.0272 23.815 -30.5314ZM30.6029 -30.5314L32.1475 -29.6236V-27.766V-25.9014L30.6029 -25.0005C29.751 -24.5047 29.0237 -24.0996 28.996 -24.0996C28.9614 -24.0996 28.241 -24.5047 27.389 -25.0005L25.8444 -25.9014V-27.766V-29.6306L27.3682 -30.5244C28.2064 -31.0202 28.9267 -31.4253 28.9752 -31.4253C29.0168 -31.4323 29.751 -31.0272 30.6029 -30.5314ZM37.3909 -30.5314L38.9354 -29.6236V-27.766V-25.9014L37.3909 -25.0005C36.5389 -24.5047 35.8117 -24.0996 35.784 -24.0996C35.7494 -24.0996 35.029 -24.5047 34.177 -25.0005L32.6324 -25.9014V-27.766V-29.6306L34.1562 -30.5244C34.9944 -31.0202 35.7147 -31.4253 35.7632 -31.4253C35.8047 -31.4323 36.5389 -31.0272 37.3909 -30.5314ZM-6.72397 -24.5955L-5.18631 -23.6946V-21.83V-19.9725L-6.7586 -19.0576L-8.33786 -18.1428L-9.91017 -19.0576L-11.4894 -19.9725V-21.837V-23.7086L-9.96559 -24.5955C-9.12748 -25.0913 -8.4002 -25.4893 -8.35171 -25.4893C-8.31015 -25.4963 -7.57594 -25.0913 -6.72397 -24.5955ZM0.0639728 -24.5955L1.60168 -23.6946V-21.83V-19.9725L0.0293458 -19.0576L-1.54988 -18.1428L-3.12221 -19.0576L-4.70144 -19.9725V-21.837V-23.6946L-3.17763 -24.5885C-2.33949 -25.0843 -1.61224 -25.4893 -1.56372 -25.4893C-1.5222 -25.4963 -0.78795 -25.0913 0.0639728 -24.5955ZM6.84502 -24.5955L8.38962 -23.6946V-21.837V-19.9725L6.81734 -19.0576L5.23811 -18.1428L3.66578 -19.0576L2.08655 -19.9725V-21.837V-23.6946L3.61037 -24.5885C4.44845 -25.0843 5.16881 -25.4893 5.21733 -25.4893C5.25885 -25.4963 5.9931 -25.0913 6.84502 -24.5955ZM13.633 -24.5955L15.1776 -23.6946V-21.837V-19.9725L13.6053 -19.0576L12.0261 -18.1428L10.4537 -19.0576L8.87449 -19.9725V-21.837V-23.6946L10.3983 -24.5885C11.2364 -25.0843 11.9568 -25.4893 12.0053 -25.4893C12.0468 -25.4963 12.781 -25.0913 13.633 -24.5955ZM20.4279 -24.5955L21.9656 -23.6946V-21.83V-19.9725L20.3933 -19.0576L18.814 -18.1428L17.2417 -19.0576L15.6625 -19.9725V-21.837V-23.6946L17.1863 -24.5885C18.0244 -25.0843 18.7517 -25.4893 18.8002 -25.4893C18.8417 -25.4963 19.5759 -25.0913 20.4279 -24.5955ZM27.209 -24.5955L28.7536 -23.6946V-21.837V-19.9725L27.1813 -19.0576L25.602 -18.1428L24.0297 -19.0576L22.4504 -19.9725V-21.837V-23.6946L23.9743 -24.5885C24.8124 -25.0843 25.5327 -25.4893 25.5812 -25.4893C25.6228 -25.4963 26.357 -25.0913 27.209 -24.5955ZM33.9969 -24.5955L35.5415 -23.6946V-21.837V-19.9725L33.9692 -19.0576L32.39 -18.1428L30.8177 -19.0576L29.2384 -19.9725V-21.83V-23.6946L30.7622 -24.5885C31.6004 -25.0843 32.3207 -25.4893 32.3692 -25.4893C32.4108 -25.4963 33.145 -25.0913 33.9969 -24.5955ZM40.8056 -24.5955L42.3296 -23.7086V-21.837V-19.9725L40.7572 -19.0576L39.178 -18.1428L37.6056 -19.0576L36.0264 -19.9725V-21.83V-23.6946L37.5503 -24.5885C38.3881 -25.0843 39.1227 -25.4893 39.178 -25.4893C39.2332 -25.4893 39.9673 -25.0913 40.8056 -24.5955ZM-9.75779 -18.464L-8.58028 -17.7726L-8.5595 -15.9221L-8.54565 -14.0715L-10.1388 -13.1427L-11.7318 -12.2208L-13.3249 -13.1427L-14.918 -14.0715V-15.929L-14.9111 -17.7796L-13.3388 -18.6945L-11.7665 -19.6093L-11.3509 -19.3789C-11.1223 -19.2531 -10.402 -18.8411 -9.75779 -18.464ZM45.758 -15.929V-14.0715L44.1651 -13.1427L42.5722 -12.2208L40.9788 -13.1427L39.3858 -14.0715L39.3995 -15.9221L39.4206 -17.7726L40.9998 -18.6945L42.579 -19.6163L44.1651 -18.6945L45.7512 -17.7796L45.758 -15.929ZM-3.31613 -18.6665L-1.79232 -17.7726L-1.77153 -15.9221L-1.75769 -14.0715L-3.35076 -13.1427L-4.94388 -12.2208L-6.53695 -13.1496L-8.13006 -14.0784L-8.11622 -15.9221L-8.09544 -17.7726L-6.57162 -18.6665C-5.73349 -19.1554 -4.99929 -19.5534 -4.94388 -19.5604C-4.88847 -19.5604 -4.15426 -19.1554 -3.31613 -18.6665ZM3.47181 -18.6665L4.99568 -17.7726L5.01646 -15.9221L5.0303 -14.0715L3.43719 -13.1427L1.84412 -12.2208L0.250997 -13.1496L-1.34207 -14.0784L-1.32823 -15.9221L-1.30744 -17.7726L0.21637 -18.6665C1.0545 -19.1554 1.78871 -19.5534 1.84412 -19.5534C1.89953 -19.5534 2.63373 -19.1554 3.47181 -18.6665ZM10.2598 -18.6665L11.7836 -17.7726L11.8044 -15.9221L11.8182 -14.0715L10.2252 -13.1427L8.63206 -12.2208L7.03899 -13.1427L5.44587 -14.0715L5.45971 -15.9221L5.4805 -17.7726L7.00437 -18.6665C7.84245 -19.1554 8.57665 -19.5534 8.63206 -19.5534C8.68747 -19.5534 9.42168 -19.1554 10.2598 -18.6665ZM17.0478 -18.6665L18.5716 -17.7726L18.5924 -15.9221L18.6062 -14.0715L17.0131 -13.1427L15.4201 -12.2208L13.8269 -13.1427L12.2339 -14.0715L12.2477 -15.9221L12.2685 -17.7726L13.7923 -18.6665C14.6304 -19.1554 15.3646 -19.5534 15.4201 -19.5534C15.4755 -19.5534 16.2097 -19.1554 17.0478 -18.6665ZM23.8357 -18.6665L25.3596 -17.7726L25.3803 -15.9221L25.3942 -14.0715L23.8011 -13.1427L22.208 -12.2208L20.6149 -13.1427L19.0218 -14.0715L19.0357 -15.9221L19.0565 -17.7726L20.5803 -18.6665C21.4184 -19.1554 22.1526 -19.5534 22.208 -19.5534C22.2634 -19.5534 22.9977 -19.1554 23.8357 -18.6665ZM30.6237 -18.6665L32.1475 -17.7726L32.1683 -15.9221L32.1822 -14.0784L30.5891 -13.1496L28.996 -12.2208L27.4029 -13.1427L25.8098 -14.0715L25.8236 -15.9221L25.8444 -17.7726L27.3682 -18.6665C28.2064 -19.1554 28.9406 -19.5604 28.996 -19.5604C29.0514 -19.5534 29.7856 -19.1554 30.6237 -18.6665ZM37.4119 -18.6665L38.9354 -17.7726L38.9564 -15.9221L38.9701 -14.0784L37.3772 -13.1496L35.784 -12.2208L34.1909 -13.1427L32.5978 -14.0715L32.6116 -15.9221L32.6324 -17.7726L34.1562 -18.6665C34.9944 -19.1554 35.7286 -19.5604 35.784 -19.5604C35.8394 -19.5534 36.5736 -19.1554 37.4119 -18.6665ZM-13.512 -12.7516L-11.9396 -11.8437V-9.99313V-8.14252L-13.5327 -7.22071L-15.1189 -6.29889L-16.7189 -7.22071L-18.312 -8.14252V-9.99313V-11.8437L-16.7328 -12.7656C-15.867 -13.2684 -15.1397 -13.6804 -15.1189 -13.6734C-15.0981 -13.6664 -14.3708 -13.2544 -13.512 -12.7516ZM-6.72397 -12.7516L-5.15168 -11.8437V-9.99313V-8.14252L-6.74475 -7.22071L-8.33093 -6.29889L-9.93095 -7.22071L-11.5241 -8.14252V-9.99313L-11.5171 -11.8437L-9.9448 -12.7656C-9.07899 -13.2684 -8.35171 -13.6734 -8.33093 -13.6734C-8.31015 -13.6664 -7.58288 -13.2544 -6.72397 -12.7516ZM0.0639728 -12.7516L1.63631 -11.8437V-9.99313V-8.14252L0.0431907 -7.22071L-1.54294 -6.29889L-3.143 -7.22071L-4.73607 -8.14252V-9.99313L-4.72917 -11.8437L-3.15684 -12.7656C-2.29103 -13.2684 -1.56372 -13.6734 -1.54294 -13.6734C-1.5222 -13.6664 -0.794895 -13.2544 0.0639728 -12.7516ZM6.85196 -12.7516L8.4243 -11.8437V-9.99313V-8.14252L6.83118 -7.22071L5.23811 -6.29191L3.64499 -7.22071L2.05187 -8.14252V-9.99313L2.05882 -11.8437L3.63115 -12.7656C4.49696 -13.2684 5.22422 -13.6734 5.24501 -13.6734C5.26579 -13.6664 5.98615 -13.2544 6.85196 -12.7516ZM13.64 -12.7516L15.2122 -11.8437V-9.99313V-8.14252L13.6192 -7.22071L12.0261 -6.29191L10.433 -7.22071L8.83987 -8.14252V-9.99313V-11.8437L10.4191 -12.7586C11.2849 -13.2684 12.0122 -13.6734 12.033 -13.6664C12.0538 -13.6664 12.7741 -13.2544 13.64 -12.7516ZM20.4279 -12.7516L22.0002 -11.8437V-9.99313V-8.14252L20.4071 -7.22071L18.814 -6.29191L17.2209 -7.22071L15.6279 -8.14252V-9.99313V-11.8437L17.2071 -12.7586C18.0729 -13.2684 18.8002 -13.6734 18.8209 -13.6664C18.8417 -13.6664 19.5621 -13.2544 20.4279 -12.7516ZM27.2159 -12.7516L28.7813 -11.8437L28.7882 -9.99313V-8.14252L27.1951 -7.22071L25.602 -6.29191L24.0089 -7.22071L22.4158 -8.14252V-9.99313V-11.8437L23.995 -12.7586C24.8609 -13.2684 25.5882 -13.6734 25.6089 -13.6664C25.6297 -13.6664 26.357 -13.2544 27.2159 -12.7516ZM34.0038 -12.7516L35.5692 -11.8437L35.5762 -9.99313V-8.14252L33.9831 -7.22071L32.383 -6.29889L30.7969 -7.22071L29.2038 -8.14252V-9.99313V-11.8437L30.783 -12.7656C31.6488 -13.2684 32.3761 -13.6734 32.3969 -13.6734C32.4177 -13.6664 33.145 -13.2544 34.0038 -12.7516ZM40.7919 -12.7516L42.357 -11.8437L42.3643 -9.99313V-8.14252L40.7709 -7.22071L39.1711 -6.29889L37.5851 -7.22071L35.9916 -8.14252V-9.99313V-11.8437L37.5709 -12.7656C38.437 -13.2684 39.1643 -13.6734 39.1848 -13.6734C39.2059 -13.6664 39.9331 -13.2544 40.7919 -12.7516ZM47.5867 -12.7516L49.1522 -11.8437V-9.99313V-8.14252L47.5588 -7.22071L45.959 -6.29889L44.3729 -7.22071L42.7795 -8.14252V-9.99313V-11.8437L44.3588 -12.7656C45.2249 -13.2684 45.9522 -13.6734 45.9796 -13.6734C46.0074 -13.6664 46.7347 -13.2544 47.5867 -12.7516ZM-16.9198 -6.83662L-15.3336 -5.91479V-4.05723L-15.3406 -2.20662L-16.9267 -1.2848L-18.5198 -0.369987L-20.099 -1.2918L-21.6714 -2.20662L-21.6922 -4.06423L-21.706 -5.91479L-20.1337 -6.83662C-19.261 -7.33943 -18.5475 -7.75843 -18.5337 -7.75843C-18.5198 -7.75843 -17.7995 -7.33943 -16.9198 -6.83662ZM-10.1388 -6.83662L-8.54565 -5.90785V-4.05723L-8.55258 -2.20662L-10.1457 -1.2848L-11.7318 -0.369987L-13.3111 -1.2918L-14.8834 -2.20662L-14.9042 -4.05723L-14.918 -5.90785L-13.3457 -6.82964C-12.473 -7.33943 -11.7596 -7.75145 -11.7457 -7.75145C-11.7388 -7.75844 -11.0115 -7.33943 -10.1388 -6.83662ZM-3.35076 -6.83662L-1.75769 -5.90785V-4.05723L-1.76458 -2.20662L-3.3577 -1.2848L-4.94388 -0.369987L-6.5231 -1.2918L-8.09544 -2.20662L-8.11622 -4.05723L-8.13006 -5.90785L-6.55773 -6.82964C-5.68502 -7.33943 -4.97156 -7.75145 -4.95772 -7.75145C-4.95082 -7.75844 -4.22351 -7.33943 -3.35076 -6.83662ZM3.43719 -6.83662L5.0303 -5.90785V-4.05723L5.02336 -2.20662L3.43029 -1.2848L1.84412 -0.369987L0.264839 -1.2918L-1.30744 -2.20662L-1.32823 -4.05723L-1.34207 -5.90785L0.230212 -6.82964C1.10297 -7.33943 1.81638 -7.75145 1.83022 -7.75145C1.83717 -7.75844 2.56448 -7.33943 3.43719 -6.83662ZM10.2252 -6.83662L11.8182 -5.90785L11.8044 -4.05723L11.7836 -2.20662L10.2113 -1.2918L8.63206 -0.369987L7.05977 -1.2918L5.4805 -2.20662L5.45971 -4.05723L5.44587 -5.90785L7.0182 -6.82964C7.89096 -7.33943 8.60438 -7.75145 8.61822 -7.75145C8.62516 -7.75844 9.35242 -7.33943 10.2252 -6.83662ZM17.0131 -6.83662L18.6062 -5.90785L18.5924 -4.05723L18.5716 -2.20662L16.9993 -1.2918L15.4201 -0.369987L13.8477 -1.2918L12.2685 -2.20662L12.2477 -4.05723L12.2339 -5.90785L13.8062 -6.82964C14.6789 -7.33943 15.3923 -7.75145 15.4062 -7.75145C15.4131 -7.75844 16.1404 -7.33943 17.0131 -6.83662ZM23.8011 -6.83662L25.3942 -5.90785L25.3803 -4.05723L25.3596 -2.20662L23.7873 -1.2918L22.208 -0.369987L20.6357 -1.2918L19.0565 -2.20662L19.0357 -4.05723L19.0218 -5.90785L20.5941 -6.82964C21.4669 -7.33943 22.1803 -7.75145 22.1942 -7.75145C22.2011 -7.75844 22.9284 -7.33943 23.8011 -6.83662ZM30.5891 -6.83662L32.1822 -5.90785L32.1683 -4.05723L32.1475 -2.20662L30.5752 -1.2918L28.996 -0.369987L27.4098 -1.2848L25.8167 -2.20662L25.8098 -4.05723V-5.90785L27.389 -6.82964C28.2548 -7.33943 28.9683 -7.75145 28.9821 -7.75145C28.9891 -7.75844 29.7164 -7.33943 30.5891 -6.83662ZM37.3772 -6.83662L38.9701 -5.90785L38.9564 -4.05723L38.9354 -2.20662L37.363 -1.2918L35.784 -0.369987L34.1978 -1.2848L32.6047 -2.20662L32.5978 -4.05723V-5.90785L34.177 -6.82964C35.0428 -7.33943 35.7562 -7.75145 35.7701 -7.75145C35.777 -7.75844 36.5042 -7.33943 37.3772 -6.83662ZM44.1651 -6.83662L45.758 -5.90785L45.7443 -4.05723L45.7233 -2.20662L44.1514 -1.2918L42.5722 -0.369987L40.9856 -1.2848L39.3927 -2.20662L39.3858 -4.05723V-5.90785L40.9651 -6.82964C41.8307 -7.33943 42.5443 -7.75145 42.558 -7.75145C42.5648 -7.75844 43.2921 -7.33943 44.1651 -6.83662ZM50.9667 -6.83662L52.5459 -5.91479L52.5322 -4.06423L52.5117 -2.20662L50.9393 -1.2918L49.3601 -0.369987L47.7667 -1.2848L46.1806 -2.20662L46.1737 -4.05723V-5.91479L47.753 -6.82964C48.6186 -7.33943 49.339 -7.75145 49.3532 -7.75843C49.3669 -7.75843 50.0942 -7.34641 50.9667 -6.83662ZM-20.2376 -0.86581L-18.7276 0.014134L-18.7415 1.86475L-18.7622 3.72232L-20.2861 4.60921C-21.1242 5.10503 -21.8584 5.50309 -21.9138 5.50309C-21.9692 5.50309 -22.7034 5.09804 -23.5416 4.60921L-25.0654 3.71532L-25.0862 1.85776L-25.1 0.00714298L-23.5277 -0.907676C-22.655 -1.4105 -21.9069 -1.80855 -21.8515 -1.78762C-21.796 -1.76664 -21.0757 -1.35464 -20.2376 -0.86581ZM-13.5189 -0.907676L-11.9396 0.014134L-11.9535 1.86475L-11.9743 3.72232L-13.4981 4.60921C-14.3362 5.10503 -15.0704 5.50309 -15.1258 5.50309C-15.1812 5.50309 -15.9155 5.09804 -16.7536 4.60921L-18.2774 3.71532L-18.2982 1.86475L-18.312 0.014134L-16.7397 -0.900729C-15.867 -1.41049 -15.1466 -1.82254 -15.1328 -1.82254C-15.1189 -1.82254 -14.3916 -1.4105 -13.5189 -0.907676ZM-6.73091 -0.907676L-5.15168 0.014134L-5.16553 1.86475L-5.18631 3.72232L-6.71013 4.60921C-7.54826 5.10503 -8.28245 5.50309 -8.33786 5.50309C-8.39327 5.50309 -9.12748 5.09804 -9.96559 4.60921L-11.4894 3.71532L-11.5102 1.86475L-11.5241 0.014134L-9.95173 -0.900729C-9.07899 -1.41049 -8.35864 -1.82254 -8.34478 -1.82254C-8.33093 -1.82254 -7.60367 -1.4105 -6.73091 -0.907676ZM0.0570773 -0.907676L1.63631 0.014134L1.62247 1.86475L1.60168 3.72232L0.0778654 4.60921C-0.760265 5.10503 -1.49447 5.50309 -1.54988 5.50309C-1.60529 5.50309 -2.33949 5.09804 -3.17763 4.60921L-4.70144 3.71532L-4.72223 1.86475L-4.73607 0.014134L-3.16378 -0.900729C-2.29103 -1.41049 -1.57067 -1.82254 -1.55682 -1.82254C-1.54294 -1.82254 -0.81568 -1.4105 0.0570773 -0.907676ZM6.84502 -0.907676L8.4243 0.014134L8.41041 1.86475L8.38962 3.71532L6.86581 4.60921C6.02773 5.09804 5.29353 5.50309 5.23811 5.50309C5.1827 5.50309 4.44845 5.09804 3.61037 4.60921L2.08655 3.71532L2.06577 1.86475L2.05187 0.014134L3.62421 -0.900729C4.49697 -1.41049 5.21733 -1.82254 5.23117 -1.82254C5.24501 -1.82254 5.97231 -1.4105 6.84502 -0.907676ZM13.633 -0.907676L15.2122 0.014134L15.1984 1.86475L15.1776 3.71532L13.6538 4.60921C12.8157 5.09804 12.0815 5.50309 12.0261 5.50309C11.9706 5.50309 11.2364 5.09804 10.3983 4.60921L8.87449 3.71532L8.85371 1.86475L8.83987 0.014134L10.4122 -0.900729C11.2849 -1.41049 12.0053 -1.82254 12.0191 -1.82254C12.033 -1.82254 12.7603 -1.4105 13.633 -0.907676ZM20.421 -0.907676L22.0002 0.014134L21.9863 1.86475L21.9656 3.71532L20.4417 4.60921C19.6037 5.09804 18.8695 5.50309 18.814 5.50309C18.7586 5.50309 18.0244 5.09804 17.1863 4.60921L15.6625 3.71532L15.6417 1.86475L15.6279 0.014134L17.2001 -0.900729C18.0729 -1.41049 18.7933 -1.82254 18.8071 -1.82254C18.8209 -1.82254 19.5482 -1.4105 20.421 -0.907676ZM27.209 -0.907676L28.7882 0.014134L28.7743 1.86475L28.7536 3.71532L27.2297 4.60921C26.3916 5.09804 25.6574 5.50309 25.602 5.50309C25.5466 5.50309 24.8124 5.09804 23.9743 4.60921L22.4504 3.71532L22.4296 1.86475L22.4158 0.014134L23.9881 -0.900729C24.8609 -1.41049 25.5812 -1.82254 25.5951 -1.82254C25.6089 -1.82254 26.3362 -1.4105 27.209 -0.907676ZM33.9969 -0.907676L35.5762 0.014134L35.5623 1.86475L35.5415 3.71532L34.0177 4.60921C33.1796 5.09804 32.4454 5.50309 32.39 5.50309C32.3346 5.50309 31.6004 5.10503 30.7622 4.60921L29.2384 3.72232L29.2176 1.86475L29.2038 0.014134L30.7761 -0.900729C31.6488 -1.41049 32.3692 -1.82254 32.383 -1.82254C32.3969 -1.82254 33.1242 -1.4105 33.9969 -0.907676ZM40.7851 -0.907676L42.3643 0.014134L42.3501 1.86475L42.3296 3.71532L40.8056 4.60921C39.9673 5.09804 39.2332 5.50309 39.178 5.50309C39.1227 5.50309 38.3881 5.10503 37.5503 4.60921L36.0264 3.72232L36.0058 1.86475L35.9916 0.014134L37.564 -0.900729C38.437 -1.41049 39.1569 -1.82254 39.1711 -1.82254C39.1848 -1.82254 39.9121 -1.4105 40.7851 -0.907676ZM47.573 -0.907676L49.1522 0.014134L49.138 1.86475L49.1175 3.71532L47.5935 4.60921C46.7557 5.09804 46.0211 5.50309 45.9659 5.50309C45.9106 5.50309 45.1765 5.10503 44.3382 4.60921L42.8143 3.72232L42.7937 1.86475L42.7795 0.014134L44.3519 -0.900729C45.2249 -1.41049 45.9453 -1.82254 45.959 -1.82254C45.9727 -1.82254 46.7 -1.4105 47.573 -0.907676ZM54.4303 -0.86581L55.9401 0.00714298L55.9264 1.85776L55.9054 3.71532L54.3814 4.60921C53.5436 5.09804 52.8095 5.50309 52.7538 5.50309C52.6985 5.50309 51.9644 5.10503 51.1261 4.60921L49.6022 3.72232L49.5816 1.86475L49.5679 0.014134L51.1398 -0.907676C52.0334 -1.42448 52.7606 -1.80855 52.8232 -1.78063C52.8785 -1.75965 53.6057 -1.34765 54.4303 -0.86581ZM-23.7008 5.01426L-22.1562 5.92208V7.77969V9.6373L-23.7147 10.5451C-24.5667 11.0479 -25.3147 11.439 -25.3771 11.425C-25.4325 11.4041 -26.1528 10.999 -26.9701 10.5172L-28.4594 9.64425V7.77969V5.91514L-26.9355 5.02125C-26.0974 4.52543 -25.3771 4.12037 -25.3286 4.12037C-25.287 4.11338 -24.5528 4.51843 -23.7008 5.01426ZM-16.9129 5.01426L-15.3683 5.92208V7.77969V9.6373L-16.9129 10.5451C-17.7648 11.041 -18.4852 11.446 -18.5129 11.446C-18.5475 11.446 -19.2748 11.034 -20.1337 10.5312L-21.706 9.61632V7.77969V5.94306L-20.1614 5.03519C-19.3164 4.53242 -18.5891 4.12736 -18.5406 4.12037C-18.499 4.11338 -17.7648 4.51843 -16.9129 5.01426ZM-10.1249 5.01426L-8.58028 5.92208V7.77969V9.6373L-10.1249 10.5451C-10.9769 11.041 -11.6972 11.446 -11.7249 11.446C-11.7596 11.446 -12.4868 11.034 -13.3457 10.5312L-14.918 9.61632V7.77969V5.94306L-13.3734 5.03519C-12.5284 4.53242 -11.8011 4.12736 -11.7526 4.12037C-11.7111 4.11338 -10.9769 4.51843 -10.1249 5.01426ZM-3.33692 5.01426L-1.79232 5.92208V7.77969V9.6373L-3.33692 10.5451C-4.18889 11.041 -4.90925 11.446 -4.93693 11.446C-4.97156 11.446 -5.69886 11.034 -6.55773 10.5312L-8.13006 9.61632V7.77969V5.94306L-6.58546 5.03519C-5.74044 4.53242 -5.01313 4.12736 -4.96466 4.12037C-4.92309 4.11338 -4.18889 4.51843 -3.33692 5.01426ZM3.45103 5.01426L4.99568 5.92208V7.77969V9.6373L3.45103 10.5451C2.5991 11.041 1.87874 11.446 1.85101 11.446C1.81639 11.446 1.08913 11.034 0.230212 10.5312L-1.34207 9.61632V7.77969V5.94306L0.202529 5.03519C1.04756 4.53242 1.77481 4.12736 1.82333 4.12037C1.8649 4.11338 2.5991 4.51843 3.45103 5.01426ZM10.239 5.01426L11.7836 5.92208V7.77969V9.6373L10.239 10.5451C9.38705 11.041 8.65979 11.446 8.63206 11.446C8.60438 11.446 7.87707 11.041 7.0251 10.5451L5.4805 9.6373V7.77969V5.92208L7.00437 5.02125C7.84245 4.53242 8.56281 4.12037 8.61127 4.12037C8.65285 4.11338 9.38705 4.51843 10.239 5.01426ZM17.027 5.01426L18.5716 5.92208V7.77969V9.6373L17.027 10.5451C16.175 11.041 15.4477 11.446 15.4201 11.446C15.3923 11.446 14.6651 11.041 13.8131 10.5451L12.2685 9.6373V7.77969V5.92208L13.7923 5.02125C14.6304 4.53242 15.3508 4.12037 15.3993 4.12037C15.4408 4.11338 16.175 4.51843 17.027 5.01426ZM23.815 5.01426L25.3596 5.92208V7.77969V9.6373L23.815 10.5451C22.963 11.041 22.2357 11.446 22.208 11.446C22.1803 11.446 21.453 11.041 20.6011 10.5451L19.0565 9.6373V7.77969V5.92208L20.5803 5.02125C21.4184 4.53242 22.1387 4.12037 22.1873 4.12037C22.2288 4.11338 22.963 4.51843 23.815 5.01426ZM30.6099 5.02825L32.1822 5.94306V7.77969V9.61632L30.6099 10.5312C29.751 11.034 29.0237 11.446 28.989 11.446C28.9614 11.446 28.241 11.041 27.389 10.5451L25.8444 9.6373V7.77969V5.92208L27.3682 5.02125C28.2064 4.53242 28.9267 4.12037 28.9683 4.12037C29.0098 4.11338 29.751 4.52543 30.6099 5.02825ZM37.3977 5.02825L38.9701 5.94306V7.77969V9.61632L37.3977 10.5312C36.5389 11.034 35.8117 11.446 35.777 11.446C35.7494 11.446 35.029 11.041 34.177 10.5451L32.6324 9.6373V7.77969V5.92208L34.1562 5.02125C34.9944 4.53242 35.7147 4.12037 35.7563 4.12037C35.7978 4.11338 36.5389 4.52543 37.3977 5.02825ZM44.1856 5.02825L45.758 5.94306V7.77969V9.61632L44.1856 10.5312C43.3268 11.034 42.5996 11.446 42.5648 11.446C42.5374 11.446 41.817 11.041 40.9651 10.5451L39.4206 9.6373V7.77969V5.92208L40.944 5.02125C41.7823 4.53242 42.5027 4.12037 42.5443 4.12037C42.5859 4.11338 43.3268 4.52543 44.1856 5.02825ZM50.974 5.02825L52.5459 5.94306V7.77969V9.61632L50.974 10.5312C50.1147 11.034 49.3874 11.446 49.3532 11.446C49.3253 11.446 48.6049 11.041 47.753 10.5451L46.2084 9.6373V7.77969V5.92208L47.7324 5.02125C48.5702 4.53242 49.2906 4.12037 49.3322 4.12037C49.3738 4.11338 50.1147 4.52543 50.974 5.02825ZM57.7619 5.01426L59.2996 5.91514V7.77969V9.64425L57.8103 10.5172C56.9931 10.999 56.2727 11.4041 56.2169 11.425C56.1548 11.439 55.4065 11.0479 54.5545 10.5451L52.9963 9.6373V7.77969V5.92208L54.5203 5.02125C55.3581 4.53242 56.0854 4.12037 56.1343 4.12037C56.1758 4.11338 56.9099 4.51843 57.7619 5.01426ZM-20.2861 10.9502L-18.7622 11.8371L-18.7415 13.6946L-18.7276 15.5453L-20.2653 16.4461C-21.1173 16.935 -21.8584 17.34 -21.9138 17.34C-21.9692 17.34 -22.7104 16.942 -23.5623 16.4461L-25.1 15.5522L-25.0862 13.7016L-25.0654 11.8441L-23.5416 10.9502C-22.7034 10.4613 -21.9692 10.0563 -21.9138 10.0563C-21.8584 10.0563 -21.1242 10.4544 -20.2861 10.9502ZM-13.4981 10.9502L-11.9743 11.8371L-11.9535 13.6946L-11.9396 15.5453L-13.5327 16.4671L-15.1258 17.3959L-16.7189 16.4671L-18.312 15.5453L-18.2982 13.6946L-18.2774 11.8441L-16.7536 10.9502C-15.9155 10.4613 -15.1812 10.0563 -15.1258 10.0563C-15.0704 10.0563 -14.3362 10.4544 -13.4981 10.9502ZM-6.71013 10.9502L-5.18631 11.8371L-5.16553 13.6946L-5.15168 15.5453L-6.74475 16.4671L-8.33786 17.3959L-9.93095 16.4671L-11.5241 15.5453L-11.5102 13.6946L-11.4894 11.8441L-9.96559 10.9502C-9.12748 10.4613 -8.39327 10.0563 -8.33786 10.0563C-8.28245 10.0563 -7.54826 10.4544 -6.71013 10.9502ZM0.0778654 10.9502L1.60168 11.8371L1.62247 13.6946L1.63631 15.5453L0.0431907 16.4671L-1.54988 17.3959L-3.143 16.4671L-4.73607 15.5453L-4.72223 13.6946L-4.70144 11.8441L-3.17763 10.9502C-2.33949 10.4613 -1.60529 10.0563 -1.54988 10.0563C-1.49447 10.0563 -0.760265 10.4544 0.0778654 10.9502ZM6.86581 10.9502L8.38962 11.8441L8.41041 13.6946L8.4243 15.5453L6.83118 16.4671L5.23811 17.3959L3.64499 16.4671L2.05187 15.5453L2.06577 13.6946L2.08655 11.8441L3.61037 10.9502C4.44845 10.4613 5.1827 10.0563 5.23811 10.0563C5.29353 10.0563 6.02773 10.4613 6.86581 10.9502ZM13.6538 10.9502L15.1776 11.8441L15.1984 13.6946L15.2122 15.5453L13.6192 16.4671L12.0261 17.3959L10.433 16.4671L8.83987 15.5453L8.85371 13.6946L8.87449 11.8441L10.3983 10.9502C11.2364 10.4613 11.9706 10.0563 12.0261 10.0563C12.0815 10.0563 12.8157 10.4613 13.6538 10.9502ZM20.4417 10.9502L21.9656 11.8441L21.9863 13.6946L22.0002 15.5453L20.4071 16.4671L18.814 17.3959L17.2209 16.4671L15.6279 15.5453L15.6417 13.6946L15.6625 11.8441L17.1863 10.9502C18.0244 10.4613 18.7586 10.0563 18.814 10.0563C18.8695 10.0563 19.6037 10.4613 20.4417 10.9502ZM27.2297 10.9502L28.7536 11.8441L28.7743 13.6946L28.7882 15.5453L27.1951 16.4671L25.602 17.3959L24.0089 16.4671L22.4158 15.5453L22.4296 13.6946L22.4504 11.8441L23.9743 10.9502C24.8124 10.4613 25.5466 10.0563 25.602 10.0563C25.6574 10.0563 26.3916 10.4613 27.2297 10.9502ZM34.0177 10.9502L35.5415 11.8441L35.5623 13.6946L35.5762 15.5453L33.9831 16.4671L32.39 17.3959L30.7969 16.4671L29.2038 15.5453L29.2176 13.6946L29.2384 11.8371L30.7622 10.9502C31.6004 10.4544 32.3346 10.0563 32.39 10.0563C32.4454 10.0563 33.1796 10.4613 34.0177 10.9502ZM40.8056 10.9502L42.3296 11.8441L42.3501 13.6946L42.3643 15.5453L40.7709 16.4671L39.178 17.3959L37.5851 16.4671L35.9916 15.5453L36.0058 13.6946L36.0264 11.8371L37.5503 10.9502C38.3881 10.4544 39.1227 10.0563 39.178 10.0563C39.2332 10.0563 39.9673 10.4613 40.8056 10.9502ZM47.5935 10.9502L49.1175 11.8441L49.138 13.6946L49.1522 15.5453L47.5588 16.4671L45.9659 17.3959L44.3729 16.4671L42.7795 15.5453L42.7937 13.6946L42.8143 11.8371L44.3382 10.9502C45.1765 10.4544 45.9106 10.0563 45.9659 10.0563C46.0211 10.0563 46.7557 10.4613 47.5935 10.9502ZM54.3814 10.9502L55.9054 11.8441L55.9264 13.7016L55.9401 15.5522L54.4024 16.4461C53.5505 16.942 52.8095 17.34 52.7538 17.34C52.6985 17.34 51.9575 16.935 51.1056 16.4461L49.5679 15.5453L49.5816 13.6946L49.6022 11.8371L51.1261 10.9502C51.9644 10.4544 52.6985 10.0563 52.7538 10.0563C52.8095 10.0563 53.5436 10.4613 54.3814 10.9502ZM-16.9059 16.8581L-15.3406 17.766L-15.3336 19.6166V21.4742L-16.9267 22.396L-18.5268 23.3248L-20.1198 22.403L-21.706 21.4742L-21.6922 19.6236L-21.6714 17.766L-20.1129 16.8512C-19.254 16.3414 -18.5406 15.9363 -18.5198 15.9433C-18.4921 15.9433 -17.7718 16.3554 -16.9059 16.8581ZM-10.118 16.8581L-8.55258 17.766L-8.54565 19.6166V21.4672L-10.1388 22.396L-11.7318 23.3178L-13.3249 22.396L-14.918 21.4672L-14.9042 19.6166L-14.8834 17.766L-13.3249 16.8512C-12.4661 16.3414 -11.7526 15.9363 -11.7318 15.9433C-11.7111 15.9433 -10.9838 16.3554 -10.118 16.8581ZM-3.32997 16.8581L-1.76458 17.766L-1.75769 19.6166V21.4672L-3.35076 22.396L-4.94388 23.3178L-6.53695 22.396L-8.13006 21.4672L-8.11622 19.6166L-8.09544 17.766L-6.53695 16.8512C-5.67808 16.3414 -4.96466 15.9363 -4.94388 15.9433C-4.92309 15.9433 -4.19578 16.3554 -3.32997 16.8581ZM3.45797 16.8581L5.02336 17.766L5.0303 19.6166V21.4672L3.43719 22.396L1.84412 23.3178L0.250997 22.396L-1.34207 21.4672L-1.32823 19.6166L-1.30744 17.766L0.250997 16.8512C1.10991 16.3414 1.82333 15.9363 1.84412 15.9433C1.8649 15.9433 2.59216 16.3554 3.45797 16.8581ZM10.1974 16.8442L11.7836 17.766L11.8044 19.6166L11.8182 21.4672L10.2252 22.396L8.63206 23.3178L7.03899 22.396L5.44587 21.4672L5.45971 19.6166L5.4805 17.766L7.03899 16.8512C7.89786 16.3414 8.59743 15.9294 8.60438 15.9224C8.61127 15.9154 9.32474 16.3344 10.1974 16.8442ZM16.9854 16.8442L18.5716 17.766L18.5924 19.6166L18.6062 21.4672L17.0131 22.396L15.4201 23.3178L13.8269 22.396L12.2339 21.4672L12.2477 19.6166L12.2685 17.766L13.8269 16.8512C14.6858 16.3414 15.3854 15.9294 15.3923 15.9224C15.3993 15.9154 16.1127 16.3344 16.9854 16.8442ZM23.7734 16.8442L25.3596 17.766L25.3803 19.6166L25.3942 21.4672L23.8011 22.396L22.208 23.3178L20.6149 22.396L19.0218 21.4672L19.0357 19.6166L19.0565 17.766L20.6149 16.8512C21.4738 16.3414 22.1734 15.9294 22.1803 15.9224C22.1873 15.9154 22.9007 16.3344 23.7734 16.8442ZM30.5614 16.8442L32.1475 17.766L32.1683 19.6166L32.1822 21.4672L30.5891 22.396L28.996 23.3178L27.4029 22.396L25.8098 21.4672V19.6166L25.8167 17.766L27.389 16.8512C28.2548 16.3414 28.9614 15.9294 28.9683 15.9224C28.9752 15.9154 29.6887 16.3344 30.5614 16.8442ZM37.3493 16.8442L38.9354 17.766L38.9564 19.6166L38.9701 21.4672L37.3772 22.396L35.784 23.3178L34.1909 22.396L32.5978 21.4672V19.6166L32.6047 17.766L34.177 16.8512C35.0428 16.3414 35.7494 15.9294 35.7563 15.9224C35.7632 15.9154 36.4768 16.3344 37.3493 16.8442ZM44.1372 16.8442L45.7233 17.766L45.7443 19.6166L45.758 21.4672L44.1651 22.396L42.5722 23.3178L40.9788 22.396L39.3858 21.4672V19.6166L39.3927 17.766L40.9651 16.8512C41.8307 16.3414 42.5374 15.9294 42.5443 15.9224C42.5511 15.9154 43.2647 16.3344 44.1372 16.8442ZM50.9251 16.8442L52.5117 17.766L52.5322 19.6236L52.5459 21.4742L50.9598 22.403L49.3669 23.3248L47.7667 22.396L46.1737 21.4742V19.6166L46.1806 17.766L47.753 16.8512C48.6186 16.3414 49.3253 15.9294 49.3322 15.9224C49.339 15.9154 50.0526 16.3344 50.9251 16.8442ZM-13.505 22.7941L-11.9396 23.7019V25.5525V27.4031L-13.5397 28.3249L-15.1328 29.2537L-16.7258 28.3249L-18.312 27.4031V25.5525V23.7019L-16.7328 22.7801C-15.867 22.2773 -15.1397 21.8652 -15.112 21.8722C-15.0912 21.8792 -14.3639 22.2913 -13.505 22.7941ZM-6.71707 22.7941L-5.15168 23.7019V25.5525V27.4031L-6.74475 28.3249L-8.33786 29.2467L-9.93095 28.3249L-11.5171 27.4031L-11.5241 25.5525V23.7019L-9.9448 22.7801C-9.07899 22.2773 -8.35171 21.8652 -8.324 21.8722C-8.30322 21.8792 -7.57594 22.2913 -6.71707 22.7941ZM0.0709191 22.7941L1.63631 23.7019V25.5525V27.4031L0.0431907 28.3249L-1.54988 29.2467L-3.143 28.3249L-4.72917 27.4031L-4.73607 25.5525V23.7019L-3.15684 22.7801C-2.29103 22.2773 -1.56372 21.8652 -1.53604 21.8722C-1.51525 21.8792 -0.787948 22.2913 0.0709191 22.7941ZM6.85891 22.7941L8.4243 23.7019V25.5525V27.4031L6.83118 28.3249L5.23811 29.2398L3.64499 28.3249L2.05882 27.4031L2.05187 25.5525V23.7019L3.63115 22.7801C4.49696 22.2773 5.22422 21.8652 5.25195 21.8722C5.27274 21.8792 6 22.2913 6.85891 22.7941ZM13.6469 22.7941L15.2122 23.7019V25.5525V27.4031L13.6192 28.3249L12.0261 29.2398L10.433 28.3249L8.83987 27.4031V25.5525V23.7019L10.4191 22.7801C11.2849 22.2773 12.0122 21.8652 12.0399 21.8722C12.0607 21.8792 12.788 22.2913 13.6469 22.7941ZM20.4349 22.7941L22.0002 23.7019V25.5525V27.4031L20.4071 28.3249L18.814 29.2398L17.2209 28.3249L15.6279 27.4031V25.5525V23.7019L17.2071 22.7801C18.0729 22.2773 18.8002 21.8652 18.8279 21.8722C18.8487 21.8792 19.5759 22.2913 20.4349 22.7941ZM27.2228 22.7941L28.7882 23.7019V25.5525L28.7813 27.4031L27.1951 28.3249L25.602 29.2398L24.0089 28.3249L22.4158 27.4031V25.5525V23.7019L23.995 22.7801C24.8609 22.2773 25.5882 21.8652 25.6159 21.8722C25.6366 21.8792 26.3639 22.2913 27.2228 22.7941ZM34.0108 22.7941L35.5762 23.7019V25.5525L35.5692 27.4031L33.9831 28.3249L32.39 29.2467L30.7969 28.3249L29.2038 27.4031V25.5525V23.7019L30.783 22.7801C31.6488 22.2773 32.3761 21.8652 32.3969 21.8722C32.4246 21.8792 33.145 22.2913 34.0108 22.7941ZM40.7988 22.7941L42.3643 23.7019V25.5525L42.357 27.4031L40.7709 28.3249L39.178 29.2467L37.5851 28.3249L35.9916 27.4031V25.5525V23.7019L37.5709 22.7801C38.437 22.2773 39.1643 21.8652 39.1848 21.8722C39.2127 21.8792 39.9331 22.2913 40.7988 22.7941ZM47.5867 22.7941L49.1522 23.7019V25.5525V27.4031L47.5661 28.3249L45.9727 29.2537L44.3798 28.3249L42.7795 27.4031V25.5525V23.7019L44.3588 22.7801C45.2249 22.2773 45.9522 21.8652 45.9727 21.8722C46.0006 21.8792 46.721 22.2913 47.5867 22.7941ZM-10.1249 28.709L-8.54565 29.6308L-8.5595 31.4815L-8.58028 33.332L-10.1595 34.2539L-11.7388 35.1757L-13.3249 34.2539L-14.9111 33.339L-14.918 31.4884V29.6308L-13.3388 28.716C-12.473 28.2062 -11.7526 27.7872 -11.7388 27.7872C-11.7249 27.7872 -10.9976 28.1992 -10.1249 28.709ZM-3.33692 28.709L-1.75769 29.6308L-1.77153 31.4815L-1.79232 33.332L-3.31613 34.2259C-4.15426 34.7148 -4.88847 35.1198 -4.94388 35.1198C-4.99929 35.1128 -5.73349 34.7148 -6.57162 34.2259L-8.09544 33.332L-8.11622 31.4815L-8.13006 29.6378L-6.55773 28.716C-5.68502 28.2062 -4.96466 27.7872 -4.95082 27.7872C-4.93693 27.7872 -4.20968 28.1992 -3.33692 28.709ZM3.45103 28.709L5.0303 29.6308L5.01646 31.4815L4.99568 33.332L3.47181 34.2259C2.63373 34.7148 1.89953 35.1198 1.84412 35.1198C1.78871 35.1128 1.0545 34.7148 0.21637 34.2259L-1.30744 33.332L-1.32823 31.4815L-1.34207 29.6378L0.230212 28.716C1.10297 28.2062 1.82333 27.7872 1.83717 27.7872C1.85101 27.7872 2.57832 28.1992 3.45103 28.709ZM10.2321 28.709L11.8182 29.6308L11.8044 31.4815L11.7836 33.332L10.2598 34.2259C9.42168 34.7148 8.68747 35.1128 8.63206 35.1128C8.57665 35.1128 7.84245 34.7148 7.00437 34.2259L5.4805 33.332L5.45971 31.4815L5.44587 29.6308L7.0182 28.709C7.89096 28.2062 8.61127 27.7942 8.61822 27.7872C8.63206 27.7872 9.35936 28.1992 10.2321 28.709ZM17.0201 28.709L18.6062 29.6308L18.5924 31.4815L18.5716 33.332L17.0478 34.2259C16.2097 34.7148 15.4755 35.1128 15.4201 35.1128C15.3646 35.1128 14.6304 34.7148 13.7923 34.2259L12.2685 33.332L12.2477 31.4815L12.2339 29.6308L13.8062 28.709C14.6789 28.2062 15.3993 27.7942 15.4062 27.7872C15.42 27.7872 16.1473 28.1992 17.0201 28.709ZM23.8081 28.709L25.3942 29.6308L25.3803 31.4815L25.3596 33.332L23.8357 34.2259C22.9977 34.7148 22.2634 35.1128 22.208 35.1128C22.1526 35.1128 21.4184 34.7148 20.5803 34.2259L19.0565 33.332L19.0357 31.4815L19.0218 29.6308L20.5941 28.709C21.4669 28.2062 22.1873 27.7942 22.1942 27.7872C22.208 27.7872 22.9353 28.1992 23.8081 28.709ZM30.596 28.709L32.1822 29.6378L32.1683 31.4815L32.1475 33.332L30.6237 34.2259C29.7856 34.7148 29.0514 35.1128 28.996 35.1128C28.9406 35.1128 28.2064 34.7148 27.3682 34.2259L25.8444 33.332L25.8236 31.4815L25.8098 29.6308L27.3821 28.709C28.2548 28.2062 28.9752 27.7872 28.989 27.7872C29.0029 27.7872 29.7233 28.2062 30.596 28.709ZM37.384 28.709L38.9701 29.6378L38.9564 31.4815L38.9354 33.332L37.4119 34.2259C36.5736 34.7148 35.8394 35.1128 35.784 35.1198C35.7286 35.1198 34.9944 34.7148 34.1562 34.2259L32.6324 33.332L32.6116 31.4815L32.5978 29.6308L34.1701 28.709C35.0428 28.2062 35.7632 27.7872 35.777 27.7872C35.7909 27.7872 36.511 28.2062 37.384 28.709ZM44.1719 28.709L45.758 29.6308V31.4884L45.7512 33.339L44.1651 34.2539L42.579 35.1757L40.9998 34.2539L39.4206 33.332L39.3995 31.4815L39.3858 29.6308L40.9582 28.709C41.8307 28.2062 42.5511 27.7872 42.5648 27.7872C42.579 27.7872 43.2994 28.1992 44.1719 28.709ZM-6.66166 34.6799L-5.15168 35.5528L-5.16553 37.4034L-5.18631 39.2542L-6.72397 40.1551C-7.57594 40.6505 -8.31015 41.056 -8.35171 41.0486C-8.4002 41.0486 -9.12748 40.6505 -9.96559 40.1551L-11.4894 39.2679L-11.5102 37.4104L-11.5241 35.5528L-9.95173 34.638C-9.05129 34.1142 -8.33093 33.7371 -8.2686 33.765C-8.21318 33.786 -7.4859 34.198 -6.66166 34.6799ZM0.126331 34.6799L1.63631 35.5528L1.62247 37.4034L1.60168 39.2542L0.112492 40.1267C-0.704852 40.609 -1.42521 41.0139 -1.48752 41.0349C-1.54294 41.0486 -2.29103 40.6579 -3.14989 40.1619L-4.70144 39.2542L-4.72223 37.4034L-4.73607 35.5528L-3.16378 34.638C-2.2633 34.1142 -1.54294 33.7371 -1.48063 33.765C-1.42522 33.786 -0.69791 34.198 0.126331 34.6799ZM6.91432 34.6799L8.4243 35.5528L8.41041 37.4034L8.38962 39.2542L6.84502 40.1551C5.9931 40.6505 5.27274 41.056 5.23811 41.056C5.20344 41.056 4.48312 40.6505 3.63115 40.1551L2.08655 39.2542L2.06577 37.4034L2.05187 35.5528L3.62421 34.638C4.52465 34.1142 5.24501 33.7371 5.30737 33.765C5.36278 33.786 6.09003 34.198 6.91432 34.6799ZM13.7023 34.6799L15.2122 35.5528L15.1984 37.4034L15.1776 39.2542L13.633 40.1551C12.781 40.6505 12.0607 41.056 12.0261 41.056C11.9914 41.056 11.2711 40.6505 10.4191 40.1551L8.87449 39.2542L8.85371 37.4034L8.83987 35.5528L10.4122 34.638C11.3126 34.1142 12.033 33.7371 12.0953 33.765C12.1507 33.786 12.878 34.198 13.7023 34.6799ZM20.4903 34.6799L22.0002 35.5528L21.9863 37.4034L21.9656 39.2542L20.4764 40.1267C19.6591 40.609 18.9387 41.0139 18.8764 41.0349C18.8209 41.0486 18.0729 40.6579 17.214 40.1619L15.6625 39.2542L15.6417 37.4034L15.6279 35.5528L17.2001 34.638C18.1006 34.1142 18.8209 33.7371 18.8833 33.765C18.9387 33.786 19.666 34.198 20.4903 34.6799ZM27.2782 34.6799L28.7882 35.5528L28.7743 37.4034L28.7536 39.2542L27.209 40.1551C26.357 40.6505 25.6366 41.056 25.602 41.056C25.5674 41.056 24.847 40.6505 23.995 40.1551L22.4504 39.2542L22.4296 37.4034L22.4158 35.5528L23.9881 34.638C24.8886 34.1142 25.6089 33.7371 25.6713 33.765C25.7267 33.786 26.454 34.198 27.2782 34.6799ZM34.0662 34.6799L35.5762 35.5528L35.5623 37.4034L35.5415 39.2542L33.99 40.1619C33.1311 40.6579 32.383 41.0486 32.3276 41.0349C32.2653 41.0139 31.545 40.609 30.7276 40.1267L29.2384 39.2542L29.2176 37.4034L29.2038 35.5528L30.7761 34.638C31.6766 34.1142 32.3969 33.7371 32.4592 33.765C32.5146 33.786 33.242 34.198 34.0662 34.6799ZM40.854 34.6799L42.3643 35.5528L42.3501 37.4104L42.3296 39.2679L40.8056 40.1551C39.9673 40.6505 39.2401 41.0486 39.1917 41.0486C39.1501 41.056 38.416 40.6505 37.564 40.1551L36.0264 39.2542L36.0058 37.4034L35.9916 35.5528L37.564 34.638C38.4644 34.1142 39.1848 33.7371 39.2474 33.765C39.3027 33.786 40.0299 34.198 40.854 34.6799ZM-3.33692 40.56L-1.79232 41.4609V43.3253V45.1901L-3.33692 46.091C-4.18889 46.5864 -4.91615 46.9914 -4.94388 46.9914C-4.9785 46.9914 -5.69886 46.5864 -6.55084 46.091L-8.09544 45.1828V43.3253V41.4609L-6.57162 40.5669C-5.73349 40.071 -5.01313 39.666 -4.96466 39.666C-4.92309 39.6592 -4.18889 40.0641 -3.33692 40.56ZM3.45103 40.56L4.99568 41.4609V43.3253V45.1901L3.45103 46.091C2.5991 46.5864 1.8718 46.9914 1.84412 46.9914C1.80949 46.9914 1.08913 46.5864 0.237156 46.091L-1.30744 45.1828V43.3253V41.4609L0.21637 40.5669C1.0545 40.071 1.77481 39.666 1.82333 39.666C1.8649 39.6592 2.5991 40.0641 3.45103 40.56ZM10.239 40.56L11.7836 41.4609V43.3253V45.1828L10.239 46.091C9.38705 46.5864 8.66669 46.9914 8.63206 46.9914C8.59743 46.9914 7.87707 46.5864 7.0251 46.091L5.4805 45.1828V43.3253V41.4609L7.00437 40.5669C7.84245 40.071 8.56281 39.666 8.61127 39.666C8.65285 39.6592 9.38705 40.0641 10.239 40.56ZM17.027 40.56L18.5716 41.4609V43.3253V45.1828L17.027 46.091C16.175 46.5864 15.4547 46.9914 15.4201 46.9914C15.3854 46.9914 14.6651 46.5864 13.8131 46.091L12.2685 45.1828V43.3253V41.4609L13.7923 40.5669C14.6304 40.071 15.3508 39.666 15.3993 39.666C15.4408 39.6592 16.175 40.0641 17.027 40.56ZM23.815 40.56L25.3596 41.4609V43.3253V45.1828L23.815 46.091C22.963 46.5864 22.2427 46.9914 22.208 46.9914C22.1734 46.9914 21.453 46.5864 20.6011 46.091L19.0565 45.1828V43.3253V41.4609L20.5803 40.5669C21.4184 40.071 22.1387 39.666 22.1873 39.666C22.2288 39.6592 22.963 40.0641 23.815 40.56ZM30.6029 40.56L32.1475 41.4609V43.3253V45.1828L30.6029 46.091C29.751 46.5864 29.0306 46.9914 28.996 46.9914C28.9683 46.9914 28.241 46.5864 27.389 46.091L25.8444 45.1901V43.3253V41.4609L27.3682 40.5669C28.2064 40.071 28.9267 39.666 28.9752 39.666C29.0168 39.6592 29.751 40.0641 30.6029 40.56ZM37.3909 40.56L38.9354 41.4609V43.3253V45.1828L37.3909 46.091C36.5389 46.5864 35.8186 46.9914 35.784 46.9914C35.7563 46.9914 35.029 46.5864 34.177 46.091L32.6324 45.1901V43.3253V41.4609L34.1562 40.5669C34.9944 40.071 35.7147 39.666 35.7632 39.666C35.8047 39.6592 36.5389 40.0641 37.3909 40.56Z" stroke="var(--stroke-0, #09090B)" stroke-width="1.35"/>
</g>
</g>
</svg>
